<svg height="100%" width="100%" viewBox="0 0 64 64">
<path id="sets_icon" d="M41.844,10.406c-0.06,0-0.147,0.14-0.188,0.344-0.138,0.691-1.046,2.465-1.718,3.344-0.867,1.13-2.185,2.189-3.594,2.875-5.328,2.591-11.867-0.093-13.813-5.657-0.154-0.44-0.309-0.84-0.343-0.874-0.163-0.163-2.898,1.349-4.188,2.312l-0.594,0.438,0.532,0.624c0.64,0.73,1.661,2.721,1.937,3.813,0.109,0.43,0.215,1.337,0.25,2.031,0.246,4.833-3.192,9.24-7.937,10.219-1.17,0.241-2.6564,0.294-3.5318,0.125l-0.5312-0.094v1.032c-0.0339,1.971,0.0687,4.322,0.2188,4.562,0.0536,0.086,0.3906,0.038,1-0.125,1.1882-0.319,3.5312-0.323,4.7182-0.031,3.086,0.758,5.574,2.807,6.876,5.656,1.525,3.338,1.054,7.392-1.219,10.281l-0.625,0.813,0.25,0.187c0.146,0.114,0.956,0.574,1.781,1l1.5,0.75,0.187-0.625c0.983-3.139,3.734-5.689,7.032-6.562,1.252-0.332,3.569-0.392,4.781-0.094,3.094,0.761,5.573,2.802,6.906,5.688,0.226,0.488,0.407,0.958,0.407,1.062s0.044,0.189,0.093,0.188c0.12-0.003,1.868-0.922,2.594-1.376l0.563-0.374-0.219-0.282c-0.765-0.979-1.491-2.756-1.719-4.218-0.184-1.177-0.064-3.186,0.25-4.282,0.985-3.444,3.723-6.15,7.156-7.031,1.061-0.272,2.847-0.349,4.156-0.187l0.813,0.093,0.063-0.469c0.134-0.864,0.244-4.558,0.156-5.5l-0.094-0.937-0.312,0.094c-0.176,0.041-0.9,0.086-1.594,0.125-4.39,0.242-8.451-2.489-9.906-6.656-1.07-3.063-0.538-6.723,1.374-9.25l0.594-0.75-1-0.657c-0.99-0.639-2.851-1.625-3.062-1.625zm-9.969,11.625c2.822-0.009,5.084,0.877,7.094,2.781,1.295,1.228,2.135,2.617,2.687,4.438,0.281,0.925,0.307,1.28,0.313,2.75,0.004,1.267-0.025,1.881-0.188,2.469-0.678,2.452-2.043,4.425-3.969,5.75-1.119,0.77-1.416,0.901-2.75,1.343-0.96,0.319-1.334,0.37-2.687,0.407-1.742,0.047-2.411-0.023-3.687-0.469-1.477-0.516-2.596-1.221-3.782-2.406-2.128-2.129-3.066-4.617-2.906-7.656,0.133-2.533,1.077-4.615,2.875-6.438,1.895-1.922,4.29-2.959,7-2.969z" stroke="#fff" stroke-width="2" fill="#000"/>
</svg>