<svg xmlns="http://www.w3.org/2000/svg" width="512" height="512"><path d="M178.22 389.07c-.99-.232-2.91-.883-4.274-1.45-1.565-.647-19.59-22.142-48.87-58.278-25.516-31.49-49.464-60.755-53.22-65.036-7.174-8.176-12.254-17.226-14.73-26.24-1.68-6.108-1.874-16.64-.395-21.287 1.82-5.72 27.54-44.78 30.987-47.06 6.526-4.314 13.98-.56 23.18 11.668 2.962 3.94 19.725 22.624 37.25 41.524l31.867 34.363 19.78-21.4C279.532 169.58 325.63-2.65 446.556 68.075c116.69 120.06-32.598-4.44-72.75 60.858-29.4 44.89-52.666 83.91-85.165 133.554-58.524 89.403-71.636 108.245-80.57 115.8-9.777 8.267-21.915 12.652-29.852 10.783z"/><path d="M513.287 258.094a256.644 255.275 0 1 1-.244-11.134" transform="matrix(.60915 0 0 .61242 36.17 100.264)" fill="none" stroke="#000" stroke-width="12" stroke-linecap="round"/></svg>
