<svg xmlns="http://www.w3.org/2000/svg" width="226.777" height="226.777"><path d="M225.647 95.009c-3.504-29.938-56.972-48.282-119.428-40.973C43.764 61.346-4.025 91.545-.521 121.482c3.506 29.937 56.977 48.28 119.43 40.969 62.454-7.31 110.244-37.506 106.738-67.442zm-57.07 5.476c-4.164 13.096-24.403 15.552-24.403 15.552-8.112 1.117-22.995.966-22.995.966-1.04 9.228 4.688 10.567 14.81 10.718 10.12.146 22.695-5.658 22.695-5.658l-3.125 16.074s-12.427 3.348-21.656 3.199c-9.226-.146-21.503.3-29-11.234-7.494 8.407-17.133 11.829-30.006 11.905-12.874.074-22.101-7.591-18.53-24.035C59.94 101.526 81.446 99.74 81.446 99.74c10.938-1.488 23.29-1.041 23.29-1.041 1.564-10.046-7.961-10.642-17.71-10.567-9.747.075-19.791 5.508-19.791 5.508l2.752-15.85s10.49-2.456 23.887-3.498c13.394-1.042 23.364 4.093 26.565 11.385 7.888-8.633 22.396-13.917 35.345-11.46 12.946 2.456 16.965 13.172 12.795 26.268z" fill="#045" stroke="#00f" transform="matrix(.99328 0 0 1 1.695 4.916)"/><path d="M83.722 127.909c-2.5-.505-4.403-1.727-5.661-3.638-.97-1.474-1.113-2.057-.902-3.68.605-4.644 4.31-7.72 10.314-8.564 2.775-.39 14.361-.626 14.361-.292 0 .081-.36 1.19-.8 2.465-1.461 4.228-3.357 7.96-4.927 9.697-2.7 2.989-8.363 4.823-12.385 4.012zm39.975-24.017c0-1.244 1.425-5.895 2.388-7.796 3.53-6.965 14.045-10.674 19.72-6.955 1.502.984 2.756 3.62 2.756 5.79 0 3.845-2.684 6.985-7.138 8.35-2.857.876-17.726 1.388-17.726.611z" style="marker:none" color="#000" fill="#045" stroke="#00f" stroke-linecap="round" overflow="visible" transform="matrix(.99328 0 0 1 1.695 4.916)"/><path d="M45.379 188.524c-10.432-1.908-16.906-5.056-21.727-10.565-2.192-2.504-5.054-8.009-5.791-11.136-.513-2.178-1.177-11.937-.812-11.937.124 0 2.44.95 5.144 2.11 12.935 5.55 28.803 9.35 46.632 11.166 6.04.616 34.083.61 43.268-.01 4.054-.273 7.457-.409 7.565-.301.27.27-14.061 7.532-19.539 9.9-14.881 6.433-29.146 10.21-41.548 11-8.073.516-9.242.496-13.192-.227zM203.005 59.032c-13.795-5.838-32.072-9.906-51.014-11.353-6.567-.501-33.21-.31-40.94.294-2.357.184-3.295.129-3-.176.708-.733 13.78-7.104 19.29-9.402 17.82-7.43 29.855-10.172 44.37-10.106 9.623.043 14.29.93 20.147 3.832 3.36 1.665 4.713 2.659 7.749 5.696 4.937 4.94 6.573 8.197 7.5 14.931.365 2.651.604 5.579.531 6.505l-.132 1.684-4.501-1.905z" style="marker:none" color="#000" fill="#2c89a0" stroke="#0cf" stroke-linecap="round" overflow="visible" transform="matrix(.99328 0 0 1 1.695 4.916)"/><path d="M78.685 53.44c0-1.082 8.531-14.174 13.09-20.088 22.62-29.349 46.795-40.209 64.017-28.76 3.658 2.432 6.261 5.24 9.56 10.314 2.3 3.539 2.933 4.942 2.227 4.942-.151 0-2.61.398-5.466.883-20.76 3.53-42.23 12.091-64.992 25.917-8.281 5.03-7.164 4.591-17.472 6.87-.53.117-.964.082-.964-.079zm1.173 162.715c-5.48-.811-11.027-3.881-15.466-8.56-3.186-3.357-7.326-11.776-7.028-10.792 2.476 8.178 89.173-28.91 88.55-33.096-.078-.521-5.174 9.299-9.727 15.614-14.257 19.777-30.7 33.073-44.754 36.189-3.65.81-8.6 1.085-11.575.645z" style="marker:none" color="#000" fill="#5df" stroke="#5fd" stroke-linecap="round" overflow="visible" transform="matrix(.99328 0 0 1 1.695 4.916)"/><path style="marker:none" d="M73.049 146.002c-3.178-.307-7.255-1.797-9.414-3.44-4.168-3.173-5.805-6.878-5.805-13.143 0-9.571 4.035-16.139 12.487-20.323 6.492-3.214 12.445-4.24 27.04-4.664l8.875-.258.27-1.232c.387-1.761-.15-4.395-1.23-6.027-1.293-1.954-4.929-3.668-8.86-4.176-8.315-1.075-15.382-.156-23.525 3.06-1.739.686-3.212 1.192-3.274 1.124-.061-.069.408-3.115 1.042-6.77l1.154-6.644 2.1-.524c3.268-.816 11.897-2.144 17.687-2.723 5.77-.577 11.887-.326 15.434.633 5.686 1.538 11.155 5.29 13.01 8.926.454.89.978 1.619 1.165 1.619.187 0 .906-.595 1.599-1.32 3.276-3.437 9.937-7.238 16.049-9.16 4.478-1.408 12.327-1.928 16.956-1.123 5.878 1.022 10.7 4.37 12.655 8.787 1.165 2.634 1.677 6.948 1.235 10.396-1.21 9.427-4.72 13.955-13.981 18.036-6.527 2.876-13.877 3.963-26.8 3.963h-7.642l.003 2.25c.008 7.414 3.72 9.895 14.788 9.887 6.423-.005 10.083-.666 17.255-3.116 2.957-1.01 4.82-1.456 4.819-1.154-.007.907-2.46 13.173-2.678 13.391-.413.413-7.002 1.823-11.894 2.546-6.751.997-18.41.691-23.32-.611-4.714-1.25-8.252-3.352-11.366-6.75-1.436-1.567-2.61-3.043-2.61-3.28 0-.238-1.11.621-2.465 1.909-6.264 5.95-12.691 8.756-22.4 9.778-4.068.428-5.134.445-8.359.133zm16.59-12.605c3.686-.782 7.005-2.689 8.686-4.99 1.418-1.939 4.532-8.793 5.19-11.418l.31-1.244-8.1.249c-5.484.169-8.805.465-10.281.918-4.43 1.36-7.168 4.388-7.74 8.563-.467 3.405 2.46 6.974 6.492 7.918 2.369.554 2.853.555 5.443.005zm48.313-23.969c4.949-.507 7.385-1.413 9.346-3.473 3.173-3.333 3.498-7.45.885-11.202-1.58-2.267-6.735-3.468-10.5-2.446-7.132 1.934-11.336 6.347-13.23 13.887-.62 2.47-.64 2.965-.132 3.287.818.518 8.355.489 13.63-.053z" color="#000" fill="#0ff" stroke="#00f" stroke-width=".429" stroke-linecap="round" overflow="visible"/></svg>
