<svg xmlns="http://www.w3.org/2000/svg" width="228" height="201"><path d="M110.764 16.843c-.022 0-.041.007-.053.026-.334.558-7.05 11.276-14.918 23.802a77179.861 77179.861 0 0 0-46.628 74.41 44787.284 44787.284 0 0 1-35.953 57.355c-1.98 3.14-3.996 6.48-4.481 7.407-.935 1.787 2.096-1.28 36.269-36.69 38.154-39.537 45.004-46.636 55.748-57.62l10.438-10.65V17.16c-.192-.194-.347-.32-.422-.316zm.422 83.872c-.051.043-.729.727-1.002 1.002.337.11.67.22 1.002.342v-1.344zm-46.549 47.788l-.554.553h.607a52.25 52.25 0 0 1-.053-.553z" fill="maroon"/><path d="M110.184 101.717c-1.199 1.206-3.874 3.966-7.67 7.907l-8.725 9.068h17.397v-16.633a31.149 31.149 0 0 0-1.002-.342zm-28.44 29.627l-8.83 8.856-8.277 8.303c.017.185.034.369.053.553h46.496v-17.712H81.744z" fill="#d40000"/><path d="M111.607 16.843c.023 0 .042.007.053.026.334.558 7.05 11.276 14.919 23.802a77186.66 77186.66 0 0 1 46.628 74.41 44785.178 44785.178 0 0 0 35.953 57.355c1.98 3.14 3.995 6.48 4.48 7.407.935 1.787-2.096-1.28-36.268-36.69-38.155-39.537-45.005-46.636-55.748-57.62l-10.438-10.65-.227-57.837c.191-.194.574-.206.648-.203zm-.421 83.872c.05.043.729.727 1.001 1.002-.336.11-.669.22-1.001.342zm46.549 47.788l.553.553h-.606l.053-.553z" fill="#d40000"/><path d="M112.187 101.717c1.2 1.206 3.874 3.966 7.67 7.907l8.725 9.068h-17.396v-16.633c.332-.121.665-.232 1.001-.342zm28.441 29.627l8.83 8.856 8.277 8.303-.053.553h-46.496v-17.712h29.442z" fill="#a00"/><path d="M8.294 180.414L111.283 16.72 214.12 180.621 111.19 75.295z" fill="none" stroke="red" stroke-width="1.68694"/><path d="M93.844 118.447l17.439-17.514 16.532 17.193zM64.113 149.006l17.553-17.533 58.95-.113 17.458 17.572z" fill="none" stroke="red" stroke-width="1.68694"/><path d="M197.577 175.926l-28.255-14.24-58.946-.025c-33.925-.014-59.059.147-59.21.378-.331.506-50.94 25.93-51.166 25.703-.153-.153 110.66-179.114 111.334-179.8.166-.17 26.071 40.687 57.568 90.79C200.398 148.838 226.092 189.908 226 190c-.092.092-12.883-6.24-28.423-14.073zm16.103 1.894c-.814-1.28-23.983-38.223-51.487-82.096-27.504-43.873-50.237-80.022-50.52-80.33-.392-.43-12.638 18.707-52.17 81.529-28.412 45.15-51.72 82.445-51.796 82.879-.075.433.22.925.656 1.092.581.223 1.478-.395 3.364-2.321 1.414-1.445 22-22.512 45.746-46.817 23.746-24.305 45.551-46.592 48.456-49.528l5.282-5.337 51.157 52.368c48.366 49.512 51.201 52.329 51.975 51.629.783-.71.755-.84-.663-3.068zm-62.84-37.679l-9.736-9.745H81.26l-9.737 9.745-9.736 9.745h98.789l-9.737-9.745zm-28.198-21.025l7.381-.277-9.128-9.518c-5.02-5.235-9.261-9.57-9.423-9.632-.163-.063-4.78 4.373-10.26 9.858l-9.964 9.972 12.007-.063c6.603-.034 15.328-.187 19.387-.34z" style="marker:none" color="#000" fill="#fff" overflow="visible"/></svg>
