<svg xmlns="http://www.w3.org/2000/svg" width="226.777" height="226.777"><defs><linearGradient id="a"><stop offset="0"/><stop offset="1" stop-color="#ddd"/></linearGradient></defs><path style="marker:none" d="M112.984 2.296C51.402 2.296 1.489 52.21 1.489 113.792c0 61.583 49.914 111.497 111.496 111.497 61.583 0 111.528-49.914 111.528-111.496 0-61.583-49.945-111.497-111.528-111.497zm0 23.379c48.668 0 88.15 39.45 88.15 88.117 0 48.668-39.482 88.118-88.15 88.118-48.667 0-88.117-39.45-88.117-88.118 0-48.667 39.45-88.117 88.117-88.117z" color="#000" fill="#fff" stroke="gray" stroke-width="2.977" stroke-linecap="round" overflow="visible"/><path style="marker:none" d="M74.766 171.47c0-.516 1.541-8.324 3.425-17.35 1.884-9.028 3.288-16.824 3.121-17.325-.167-.502-3.246 1.061-6.843 3.474l-6.538 4.386.684-3.66c1.409-7.534 1.871-8.208 9.018-13.152l7.116-4.922 6.036-28.827c3.32-15.856 6.51-31.098 7.088-33.873l1.052-5.045h10.502c7.998 0 10.502.3 10.502 1.255 0 .69-2.176 11.566-4.836 24.169s-4.714 23.263-4.564 23.69c.149.426 7.54-4.225 16.426-10.337 8.885-6.111 16.383-10.883 16.662-10.605.278.279-.011 2.81-.644 5.626l-1.15 5.12-16.836 11.517c-9.26 6.334-17.211 12.388-17.669 13.453-.627 1.46-7.568 33.393-7.568 34.82 0 .147 13.217.267 29.372.267 27.516 0 29.343.106 28.894 1.682-.263.925-.97 4.276-1.572 7.447-.601 3.17-1.309 6.522-1.572 7.447-.447 1.567-3.198 1.682-40.293 1.682-25.265 0-39.813-.343-39.813-.939z" color="#000" fill="#fff" overflow="visible"/><path style="marker:none" d="M99.997 198.528c-10.006-1.639-16.705-3.757-24.983-7.9-39.59-19.814-57.747-65.346-42.639-106.922 8.686-23.9 29.292-43.762 53.688-51.745 18.317-5.994 40.293-5.508 57.598 1.274 58.914 23.088 74.252 98.99 28.754 142.294-13.53 12.878-28.534 20.242-46.954 23.047-10.806 1.645-15.177 1.637-25.464-.048z" color="#000" fill="#666" stroke="#dad9ff" stroke-width="3.844" stroke-linecap="round" overflow="visible"/><text style="text-align:start;line-height:125%;-inkscape-font-specification:Sans Bold" x="84.969" y="149.417" font-size="96" font-weight="700" letter-spacing="0" word-spacing="0" fill="#fff" font-family="Sans"><tspan x="84.969" y="149.417">?</tspan></text></svg>
