<svg xmlns="http://www.w3.org/2000/svg" width="226.777" height="226.777"><path d="M114.001-1.44C51.591-1.44 1 49.424 1 112.168c0 62.745 50.592 113.609 113.001 113.609 62.407 0 112.999-50.864 112.999-113.609C227 49.424 176.408-1.44 114.001-1.44zm4.44 174.968H77.516V118.83H63.091v-13.399h14.424V50.73h35.123c8.31 0 63.344-1.735 63.344 62.425 0 65.221-57.54 60.373-57.54 60.373z" fill="#c2a633"/><path d="M100.592 135.01v-15.374h25.806v-14.414h-25.806v-31.71l8.363.016c28.707.058 43.335 13.513 43.335 39.862 0 11.49-2.506 19.748-7.844 25.844-7.176 8.197-15.745 11.123-32.624 11.14l-11.23.011v-15.374z" style="marker:none" color="#000" fill="#c2a633" overflow="visible"/><path d="M77.653 146.16v-27.485H63.317v-12.492h14.336V51.271l25.567.375c28.263.414 31.521.93 43.773 6.943 8.942 4.387 17.419 13.192 21.934 22.783 4.936 10.487 6.52 19.746 5.96 34.834-.753 20.327-4.476 30.287-15.497 41.463-7.054 7.153-12.995 10.624-23.12 13.505-4.352 1.239-11.374 1.683-32.094 2.03l-26.523.443V146.16zm49.893 3.147c14.337-3.05 22.791-12.828 24.49-28.322 1.8-16.41-1.936-29.6-10.603-37.434-8.128-7.347-16.658-10.04-31.808-10.04h-9.033v31.711h25.806v14.414h-25.806V150.385h10.944c6.02 0 13.224-.485 16.01-1.078z" style="marker:none" color="#000" fill="#ffd42a" overflow="visible"/></svg>
