<svg xmlns="http://www.w3.org/2000/svg" xmlns:xlink="http://www.w3.org/1999/xlink" width="226.777" height="226.777"><defs><linearGradient id="a"><stop offset="0" stop-color="#2d7dc2"/><stop offset=".255" stop-color="#1e278e"/><stop offset=".714" stop-color="#1e278e"/><stop offset="1" stop-color="#2d7dc2"/></linearGradient><linearGradient xlink:href="#a" id="b" x1="21.606" y1="100.643" x2="206.157" y2="100.643" gradientUnits="userSpaceOnUse" gradientTransform="translate(-24.913 -8.495) scale(1.21541)"/></defs><path style="marker:none" d="M141.124 170.876c-6.74-.706-14.203-2.346-20.242-4.448-6.148-2.14-9.477-3.743-17.151-8.264-12.524-7.376-22.85-9.85-41.162-9.86-10.148-.007-13.74.345-23.885 2.34-13.644 2.683-28.84 9.34-35.904 15.727l-1.172 1.06V76.177l1.806-1.586c8.986-7.89 24.468-14.233 41.7-17.085 8.094-1.339 27.606-1.368 34.649-.05 7.592 1.42 14.512 3.83 20.149 7.02 14.005 7.922 19.227 10.185 28.565 12.378 8.355 1.962 15.042 2.521 26.055 2.18 20.81-.647 43.378-6.807 65.51-17.883 2.501-1.252 4.667-2.276 4.813-2.276.146 0 .327 20.496.401 45.548l.136 45.549-7.815 3.902c-16.675 8.326-36.11 14.387-52.885 16.49-6.42.806-18.304 1.064-23.568.512z" color="#000" fill="url(#b)" stroke="#2ad9ff" stroke-width="1.215" stroke-linecap="round" overflow="visible"/><text style="text-align:start;line-height:125%;-inkscape-font-specification:Garuda Bold" x="134.538" y="134.413" transform="skewX(-19.425)" font-size="64" font-weight="700" letter-spacing="0" word-spacing="0" fill="#acf" font-family="Garuda"><tspan x="134.538" y="134.413">U</tspan></text><text style="text-align:start;line-height:125%;-inkscape-font-specification:Garuda Bold" x="179.063" y="137.695" transform="skewX(-19.425)" font-size="64" font-weight="700" letter-spacing="0" word-spacing="0" fill="#acf" font-family="Garuda"><tspan x="179.063" y="137.695">R</tspan></text><path d="M59.735 141.644l-.975-.249a37.543 37.543 0 0 1-22.587-16.662 37.297 37.297 0 0 1-5.377-15.665l-.097-.902-6.148-1.063c-3.382-.586-6.147-1.074-6.143-1.094.003-.015.374-.598.824-1.296.451-.698 1.03-1.594 1.285-1.991.255-.397.718-1.112 1.029-1.588.31-.476.584-.904.608-.952.04-.08.292-.042 4.32.669l4.278.754.017-.225c.082-1.095.608-4.16.909-5.295.07-.268.123-.506.116-.53-.007-.023-2.53-.486-5.606-1.028-4.454-.785-5.585-.998-5.554-1.046l3.594-5.667c.03-.047 1.057.12 4.89.796l4.853.855.138-.284c1.063-2.2 1.93-3.706 3.145-5.463.318-.46.6-.857.627-.882.027-.025.247-.309.489-.632 1.71-2.279 4.092-4.676 6.645-6.688.81-.638 2.921-2.087 3.784-2.597a38.95 38.95 0 0 1 7.116-3.323c.688-.245 2.875-.872 3.712-1.066a38.009 38.009 0 0 1 24.78 2.7c4.926 2.338 9.334 5.791 12.88 10.09.645.782 1.703 2.205 1.69 2.275-.014.078-3.682 6.016-3.75 6.071-.024.02-.218-.256-.432-.612-.876-1.464-2.456-3.577-3.6-4.817a26.81 26.81 0 0 0-1.606-1.637c-3.26-3.125-7.31-5.545-11.695-6.991-1.408-.464-2.44-.72-4.084-1.016-2.025-.367-3.043-.475-4.813-.525-4.511-.128-9.149.783-13.33 2.62-3.691 1.622-7.25 4.116-9.994 7.005-1.77 1.865-3.477 4.171-4.65 6.285-.176.318-.324.6-.328.625-.005.027 10.082 1.826 24.124 4.302 19.286 3.4 24.126 4.267 24.096 4.315l-1.519 2.48-1.732 2.832-.252.41-23.577-4.13-23.577-4.13-.078.227c-.127.372-.519 2.077-.658 2.867-.133.754-.352 2.474-.354 2.785l-.001.174 22.201 3.915c12.21 2.153 22.2 3.924 22.198 3.935-.003.012-.434.738-.958 1.614-.525.876-1.28 2.139-1.678 2.807a44.407 44.407 0 0 1-.77 1.266c-.033.037-4.989-.804-18.438-3.131-18.83-3.258-22.375-3.856-22.389-3.776-.004.024.058.437.138.916a30.783 30.783 0 0 0 5.404 13.004c2.85 3.984 6.32 7.047 10.571 9.333 2.987 1.606 5.934 2.624 9.324 3.222 4.028.71 7.802.655 11.8-.173 4.606-.954 9.23-3.124 12.919-6.065l.654-.521-.024.23c-.012.127-.381 2.107-.815 4.4-.653 3.438-.807 4.179-.875 4.216-.665.37-2.446 1.24-3.222 1.576-5.788 2.501-11.797 3.48-18.202 2.967-.817-.066-4.674-.674-5.268-.83z" fill="#acf"/></svg>
