<svg xmlns="http://www.w3.org/2000/svg" xmlns:xlink="http://www.w3.org/1999/xlink" width="226.777" height="226.777"><defs><linearGradient id="a"><stop offset="0" stop-color="#c2a72d"/><stop offset=".255" stop-color="#8e711e"/><stop offset=".714" stop-color="#8e711e"/><stop offset="1" stop-color="#c2a72d"/></linearGradient><linearGradient xlink:href="#a" id="b" x1="21.606" y1="100.643" x2="206.157" y2="100.643" gradientUnits="userSpaceOnUse" gradientTransform="translate(-24.913 -8.495) scale(1.21541)"/></defs><path style="marker:none" d="M141.124 170.876c-6.74-.706-14.203-2.346-20.242-4.448-6.148-2.14-9.477-3.743-17.151-8.264-12.524-7.376-22.85-9.85-41.162-9.86-10.148-.007-13.74.345-23.885 2.34-13.644 2.683-28.84 9.34-35.904 15.727l-1.172 1.06V76.177l1.806-1.586c8.986-7.89 24.468-14.233 41.7-17.085 8.094-1.339 27.606-1.368 34.649-.05 7.592 1.42 14.512 3.83 20.149 7.02 14.005 7.922 19.227 10.185 28.565 12.378 8.355 1.962 15.042 2.521 26.055 2.18 20.81-.647 43.378-6.807 65.51-17.883 2.501-1.252 4.667-2.276 4.813-2.276.146 0 .327 20.496.401 45.548l.136 45.549-7.815 3.902c-16.675 8.326-36.11 14.387-52.885 16.49-6.42.806-18.304 1.064-23.568.512z" color="#000" fill="url(#b)" stroke="#ffe02a" stroke-width="1.215" stroke-linecap="round" overflow="visible"/><text style="text-align:start;line-height:125%;-inkscape-font-specification:Garuda Bold" x="114.588" y="134.413" transform="skewX(-10)" font-size="64" font-weight="700" letter-spacing="0" word-spacing="0" fill="#ffe680" font-family="Garuda"><tspan x="114.588" y="134.413">G</tspan></text><text style="text-align:start;line-height:125%;-inkscape-font-specification:Garuda Bold" x="159.113" y="137.695" transform="skewX(-10)" font-size="64" font-weight="700" letter-spacing="0" word-spacing="0" fill="#ffe680" font-family="Garuda"><tspan x="159.113" y="137.695">B</tspan></text><path d="M40.17 138.438v-4.58l2.218-1.174c3.28-1.735 7.443-6.032 8.942-9.232 1.084-2.315 1.285-3.366 1.285-6.735v-3.992l-5.518-.132-5.519-.133V100.75h4.512c3.755 0 4.468-.115 4.25-.683-.64-1.668-.849-10.05-.321-12.913 2.385-12.948 14.044-20.578 28.896-18.908 4.351.49 8.906 1.646 9.343 2.373.214.355-2.253 12.16-2.617 12.524-.132.133-1.066-.111-2.074-.543-2.616-1.119-10.675-1.163-12.683-.069-3.976 2.166-5.7 6.342-5.174 12.53.532 6.253-.318 5.689 8.564 5.689h7.694v11.716l-6.927.13-6.928.13-.26 3.35c-.294 3.769-2.193 8.216-4.65 10.886-.786.855-1.43 1.648-1.43 1.761 0 .113 6.763.206 15.029.206h15.029V143.017H40.17v-4.58z" fill="#ffe680"/></svg>
