<svg xmlns="http://www.w3.org/2000/svg" xmlns:xlink="http://www.w3.org/1999/xlink" width="226.777" height="226.777"><defs><linearGradient id="b"><stop offset="0" stop-color="#b30000"/><stop offset=".874" stop-color="#dad9ff"/><stop offset="1"/></linearGradient><linearGradient id="a"><stop offset="0"/><stop offset="1" stop-color="#ddd"/></linearGradient><radialGradient xlink:href="#a" id="c" cx="106.126" cy="123.789" fx="106.126" fy="123.789" r="110" gradientTransform="translate(3.86 -6.146) scale(.99218)" gradientUnits="userSpaceOnUse"/><radialGradient xlink:href="#b" id="d" cx="113" cy="113.793" fx="113" fy="113.793" r="113" gradientTransform="matrix(1 0 0 .99986 0 .016)" gradientUnits="userSpaceOnUse"/></defs><path d="M112.999 4.653C52.723 4.653 3.86 53.517 3.86 113.793c0 60.278 48.863 109.14 109.139 109.14 60.278 0 109.14-48.862 109.14-109.14.002-60.276-48.861-109.14-109.14-109.14zm42.366 162.362H70.089l7.167-34.218-13.937 9.557 3.386-18.725 14.576-10.035L95.58 45.346H122.2l-9.844 46.862 34.66-23.853-4.062 19.402-34.654 23.756-6.856 32.644h58.656l-4.736 22.858z" fill="url(#c)" stroke="#000" stroke-width="3.969"/><path style="marker:none" d="M112.984 2.296C51.402 2.296 1.489 52.21 1.489 113.792c0 61.583 49.914 111.497 111.496 111.497 61.583 0 111.528-49.914 111.528-111.496 0-61.583-49.945-111.497-111.528-111.497zm0 23.379c48.668 0 88.15 39.45 88.15 88.117 0 48.668-39.482 88.118-88.15 88.118-48.667 0-88.117-39.45-88.117-88.118 0-48.667 39.45-88.117 88.117-88.117z" color="#000" fill="url(#d)" stroke="#000" stroke-width="2.977" stroke-linecap="round" overflow="visible"/><path style="marker:none" d="M73.558 163.667c0-.516 1.542-8.324 3.426-17.35 1.883-9.028 3.288-16.824 3.12-17.326-.167-.501-3.246 1.062-6.842 3.475l-6.538 4.386.684-3.66c1.409-7.534 1.871-8.208 9.018-13.152l7.115-4.922 6.037-28.827c3.32-15.856 6.51-31.098 7.088-33.873l1.052-5.045h10.502c7.998 0 10.502.3 10.502 1.255 0 .69-2.177 11.566-4.836 24.169-2.66 12.603-4.714 23.263-4.565 23.69.15.426 7.542-4.225 16.427-10.337 8.885-6.111 16.383-10.883 16.661-10.605.279.279-.01 2.81-.643 5.626l-1.15 5.12-16.837 11.517c-9.26 6.334-17.21 12.388-17.668 13.453-.628 1.46-7.569 33.393-7.569 34.82 0 .147 13.218.267 29.373.267 27.516 0 29.343.106 28.894 1.682-.264.925-.971 4.276-1.572 7.447-.602 3.17-1.31 6.522-1.573 7.447-.446 1.567-3.198 1.681-40.292 1.681-25.266 0-39.814-.342-39.814-.938z" color="#000" fill="#fff" overflow="visible"/></svg>
