<svg xmlns="http://www.w3.org/2000/svg" xmlns:xlink="http://www.w3.org/1999/xlink" width="227" height="227"><defs><linearGradient id="a"><stop offset="0" stop-color="#0bbb00"/><stop offset="1" stop-color="#9aba25"/></linearGradient><linearGradient xlink:href="#a" id="b" gradientUnits="userSpaceOnUse" gradientTransform="translate(2 -10)" x1="82.72" y1="100.034" x2="33.665" y2="162.555"/></defs><path d="M15.739 42.84l-.49 145.81 78.615 37.101 114-41.953 1.226-144.88-79.3-37.67z" fill="#cfa" stroke="#0f0" stroke-width=".497095"/><path d="M129.723 4.636L19.865 44.311l74.688 35.293 109.858-39.643-74.688-35.325zm75.9 49.182l-3.045 1.087c1.025.213 2.035.492 3.045.746v-1.833z" fill="#0bbb00"/><path d="M20.5 43.344V181l76.344 36V79.437L20.5 43.344z" fill="url(#b)" transform="matrix(.99419 0 0 .99419 -1.665 6.625)"/><path d="M202.578 44.963l-74.781 26.999v73.197l77.826 36.754V45.709c-1.01-.254-2.02-.533-3.045-.746z" fill="#0bbb00"/></svg>
