<svg xmlns="http://www.w3.org/2000/svg" width="226.777" height="226.777"><path d="M163.356 361.786a101.377 51.41 0 1 1-202.754 0 101.377 51.41 0 1 1 202.754 0z" transform="matrix(1.1108 0 0 2.19047 44.153 -678.703)" style="marker:none" color="#000" fill="#008fbb" fill-opacity=".392" stroke="#333" stroke-width=".641" stroke-opacity=".941" overflow="visible"/><path d="M163.356 361.786a101.377 51.41 0 1 1-202.754 0 101.377 51.41 0 1 1 202.754 0z" transform="matrix(.96242 0 0 1.89785 53.35 -572.838)" style="marker:none" color="#000" fill="#008fbb" fill-opacity=".392" stroke="#fff" stroke-width=".641" stroke-opacity=".941" overflow="visible"/><path d="M163.356 361.786a101.377 51.41 0 1 1-202.754 0 101.377 51.41 0 1 1 202.754 0z" transform="matrix(.8151 0 0 1.60736 62.48 -467.745)" style="marker:none" color="#000" fill="#008fbb" stroke="#04a" stroke-width=".641" overflow="visible"/><g fill="#fff" color="#000" stroke="#fff" stroke-width=".416"><path d="M80.721 120.447c-15.723-10.608-17.68-11.639-22.91-12.073-5.069-.42-6.678-.965-8.203-2.777-1.064-1.265-1.23-1.843-1.033-3.591.448-3.976 2.037-4.701 11.416-5.21l6.023-.327 12.973 8.632c18.24 12.137 18.294 12.165 24.584 12.668 5.777.462 7 1.041 8.475 4.01.773 1.558.822 2.087.341 3.69-.914 3.054-2.328 3.525-11.094 3.692l-7.447.142-13.125-8.856zM53.007 128.823c-3.278-.791-4.564-2.153-4.564-4.831 0-4.34 3.055-5.965 11.264-5.995 5.966-.02 7.55.512 9.45 3.182 2.05 2.878.675 7.151-2.505 7.788-2.005.4-11.817.297-13.645-.144zM123.367 120.454c-16.058-10.685-17.923-11.645-23.851-12.28-4.856-.518-6.32-1.202-7.841-3.664-1.183-1.913-.949-3.292.94-5.555l1.336-1.6 7.269-.458 7.268-.457 15.982 10.602 15.98 10.602 7.448.266c4.096.147 8.248.5 9.227.785 3.43.998 4.643 4.21 2.904 7.691-1.257 2.516-2.753 2.825-13.813 2.853l-9.609.024-13.24-8.81zM169.689 118.412c-3.098-1.528-4.455-4.095-4.483-8.481l-.012-1.802-12.852-.003c-7.415-.002-13.613-.214-14.652-.502-1.942-.54-4.206-3.241-4.206-5.02 0-1.895 2.268-4.492 4.433-5.075 2.904-.782 32.248-.728 34.892.065 3.413 1.022 3.655 1.592 3.836 9.022.183 7.491-.246 9.542-2.367 11.327-1.692 1.423-2.489 1.505-4.59.469z" style="marker:none" overflow="visible"/></g></svg>
