<svg xmlns="http://www.w3.org/2000/svg" viewBox="0 0 226.8 226.8"><path style="marker:none" d="M-49.973 74.479a51.414 66.79 0 1 1-102.829 0 51.414 66.79 0 1 1 102.83 0z" transform="matrix(2.17923 0 0 1.67754 334.947 -12.141)" color="#000" fill="green" stroke="#ff0" overflow="visible"/><path d="M114 1.765C52.706 1.765 2.965 51.505 2.965 112.8c0 61.294 49.74 111.035 111.035 111.035 61.294 0 111.035-49.74 111.035-111.035 0-61.294-49.74-111.035-111.035-111.035zm29.472 170.959s5.19-17.43 2.938-33.095c-2.35-15.667-16.352-34.662-26.927-43.18-10.477-8.617-30.843-18.31-30.843-18.31s17.625 13.512 23.793 19.974c6.071 6.462 14.492 17.135 18.506 31.137 3.917 14.001 3.33 38.382-4.798 43.474-8.127 5.091-29.374-3.721-36.424-9.694-7.05-5.973-16.156-15.666-18.8-35.837-2.643-20.17-1.958-67.267-1.958-67.267s37.795.196 66.386 18.212c28.591 18.017 31.235 32.312 31.235 55.42 0 23.206-23.108 39.166-23.108 39.166z" fill="#3cb058"/><path d="M106.926 170.926c-12.583-4.38-20.258-9.913-26.546-19.137-8.141-11.942-9.63-20.636-10.306-60.18l-.539-31.506 6.97.668c31.18 2.989 56.323 13.233 74.454 30.337 11.303 10.663 16.08 24.571 14.905 43.4-.663 10.627-5.49 20.816-14.281 30.141-3.396 3.603-6.352 6.355-6.57 6.116-.217-.239.173-3.621.867-7.516 3.718-20.875.242-35.147-12.88-52.881-6.284-8.493-12.269-14.045-21.667-20.099-8.37-5.39-21.644-12.397-22.281-11.76-.203.203 2.496 2.65 5.998 5.44 15.785 12.572 22.106 19.251 28.534 30.154 6.737 11.425 10.233 26.546 9.024 39.026-1.913 19.74-7.994 23.955-25.682 17.797z" style="marker:none" color="#000" fill="green" stroke="#ff0" overflow="visible" stroke-width=".98261"/></svg>
