<svg xmlns="http://www.w3.org/2000/svg" xmlns:xlink="http://www.w3.org/1999/xlink" width="226.777" height="226.777"><defs><linearGradient id="a"><stop offset="0" stop-color="#69c22d"/><stop offset=".255" stop-color="#2a8e1e"/><stop offset=".714" stop-color="#2a8e1e"/><stop offset="1" stop-color="#69c22d"/></linearGradient><linearGradient xlink:href="#a" id="b" x1="21.606" y1="100.643" x2="206.157" y2="100.643" gradientUnits="userSpaceOnUse" gradientTransform="translate(-24.913 -8.495) scale(1.21541)"/></defs><path style="marker:none" d="M141.124 170.876c-6.74-.706-14.203-2.346-20.242-4.448-6.148-2.14-9.477-3.743-17.151-8.264-12.524-7.376-22.85-9.85-41.162-9.86-10.148-.007-13.74.345-23.885 2.34-13.644 2.683-28.84 9.34-35.904 15.727l-1.172 1.06V76.177l1.806-1.586c8.986-7.89 24.468-14.233 41.7-17.085 8.094-1.339 27.606-1.368 34.649-.05 7.592 1.42 14.512 3.83 20.149 7.02 14.005 7.922 19.227 10.185 28.565 12.378 8.355 1.962 15.042 2.521 26.055 2.18 20.81-.647 43.378-6.807 65.51-17.883 2.501-1.252 4.667-2.276 4.813-2.276.146 0 .327 20.496.401 45.548l.136 45.549-7.815 3.902c-16.675 8.326-36.11 14.387-52.885 16.49-6.42.806-18.304 1.064-23.568.512z" color="#000" fill="url(#b)" stroke="#7fff2a" stroke-width="1.215" stroke-linecap="round" overflow="visible"/><path d="M103.414 152.533c-.158-.278-.028-2.215.292-4.334l.577-3.832-2.55-1.168c-3.05-1.396-5.392-2.899-7.516-4.824-1.832-1.66-4.101-4.538-4.005-5.078.108-.603 6.203-6.013 6.68-5.929.238.042 1.202.932 2.14 1.976 2.96 3.294 7.302 5.892 10.913 6.529 3.352.59 7.116-.61 8.57-2.733 1.264-1.844 1.44-3.358.623-5.342-.568-1.379-1.18-2.054-3.39-3.737-1.484-1.13-4.137-2.943-5.896-4.03-6.354-3.924-9.356-6.585-11.282-10-1.745-3.094-2.072-5.3-1.384-9.336.55-3.23.64-3.454 2.274-5.678 2.965-4.037 7.833-6.667 13.063-7.06l1.73-.13.794-3.973c.65-3.254.908-4.031 1.426-4.293.392-.198 1.736-.124 3.552.196 3.945.696 3.965.73 3.124 5.502l-.662 3.751 2.486 1.05c3.11 1.313 7.019 4.089 8.645 6.14l1.242 1.565-2.63 3.298c-2.86 3.588-3.665 3.996-4.84 2.453-1.043-1.371-4.45-3.876-6.605-4.856-5.254-2.39-11.66-1.148-13.045 2.529-1.486 3.95.461 6.464 9.14 11.798 6.18 3.797 8.358 5.5 10.475 8.185 3.914 4.966 3.74 12.063-.436 17.69-2.791 3.76-7.232 6.177-12.245 6.663l-2.19.213-.663 3.764c-.85 4.819-.846 4.816-5.01 4.082-2.157-.38-3.198-.702-3.397-1.05z" fill="#b3ff80"/><text style="text-align:start;line-height:125%;-inkscape-font-specification:Garuda Bold" x="71.419" y="137.842" transform="skewX(-10)" font-size="64" font-weight="700" letter-spacing="0" word-spacing="0" fill="#b3ff80" font-family="Garuda"><tspan x="71.419" y="137.842">U</tspan></text><text style="text-align:start;line-height:125%;-inkscape-font-specification:Garuda Bold" x="155.758" y="140.267" transform="skewX(-10)" font-size="64" font-weight="700" letter-spacing="0" word-spacing="0" fill="#b3ff80" font-family="Garuda"><tspan x="155.758" y="140.267">D</tspan></text></svg>
