<svg xmlns="http://www.w3.org/2000/svg" xmlns:xlink="http://www.w3.org/1999/xlink" width="226.777" height="226.777"><defs><linearGradient id="a"><stop offset="0" stop-color="#60ddff"/><stop offset="1" stop-color="#1e4ef2"/></linearGradient><radialGradient xlink:href="#a" id="b" gradientUnits="userSpaceOnUse" gradientTransform="matrix(.80912 .5025 -.53104 .62822 119.474 -4.452)" cx="152.707" cy="183.436" fx="152.707" fy="183.436" r="53"/></defs><path style="marker:none" d="M220 191.777a52.5 45 0 1 1-105 0 52.5 45 0 1 1 105 0z" transform="matrix(2.12104 0 0 2.47454 -241.774 -361.284)" color="#000" fill="#d5e5ff" stroke="#59f" overflow="visible"/><path style="marker:none" d="M220 191.777a52.5 45 0 1 1-105 0 52.5 45 0 1 1 105 0z" transform="matrix(1.82075 0 0 2.12421 -192.462 -293.113)" color="#000" fill="url(#b)" stroke="#04a" overflow="visible"/><path d="M65.91 60.746l10.56 26.002H59.962v13.001h21.824l4.76 11.7H59.961v13.002h31.863l21.675 53.304 21.675-53.304h31.863V111.45h-26.583l4.759-11.701h21.824V86.748h-16.545l10.596-26.002h-11.897l-21.415 50.704H99.223L77.808 60.746H65.911zm38.816 63.705h17.548l-8.774 20.801-8.774-20.801z" fill="#d5f6ff" stroke="#000" stroke-width="1.244"/></svg>
