<svg xmlns="http://www.w3.org/2000/svg" xmlns:xlink="http://www.w3.org/1999/xlink" width="226.777" height="226.777"><defs><linearGradient id="a"><stop offset="0" stop-color="#165016"/><stop offset="1" stop-color="#165016" stop-opacity="0"/></linearGradient><linearGradient id="b"><stop offset="0" stop-color="#165016"/><stop offset="1" stop-color="#165016" stop-opacity="0"/></linearGradient><linearGradient id="c"><stop offset="0" stop-color="#afa"/><stop offset="1" stop-color="#165016"/></linearGradient><linearGradient id="d"><stop offset="0" stop-color="#165016"/><stop offset="1" stop-color="#afa"/></linearGradient><linearGradient xlink:href="#c" id="e" gradientUnits="userSpaceOnUse" x1="31.691" y1="112.093" x2="48.117" y2="105.298"/><linearGradient xlink:href="#d" id="f" gradientUnits="userSpaceOnUse" gradientTransform="matrix(1.06738 0 0 1.06738 -2.968 -6.527)" x1="109.601" y1="146.103" x2="60.3" y2="92.971"/></defs><path d="M226 113.777c0 62.408-50.592 113-113 113s-113-50.592-113-113 50.592-113 113-113 113 50.592 113 113z" style="marker:none" color="#000" fill="#afa" overflow="visible"/><path d="M200.684 60.48l-82.566 116.884s-1.597 2.44-4.834 2.44c-3.24 0-5.353-2.58-5.353-2.58l-14.244-18.892 85.789-122.699C161.569 20.386 138.362 11.178 113 11.178c-56.664 0-102.599 45.935-102.599 102.599S56.336 216.376 113 216.376s102.599-45.935 102.599-102.599c0-19.518-5.452-37.764-14.915-53.297z" fill="#165016"/><path style="marker:none" d="M31.006 111.76c1.239-1.579 12.56-14.107 12.747-14.107.102 0 2.503 3.093 5.336 6.872 2.832 3.78 5.36 7.143 5.617 7.475.372.479-2.087.603-11.947.603-11.75 0-12.38-.046-11.753-.843z" color="#000" fill="url(#e)" overflow="visible" transform="matrix(.904 0 0 .904 10.401 11.178)"/><path style="marker:none" d="M68.395 130.537C55.49 113.519 44.562 98.98 44.11 98.228c-.674-1.123 3.3-1.367 22.262-1.367h23.082l10.103 13.077c5.556 7.192 11.293 14.693 12.748 16.667l2.646 3.59-10.907 15.603c-6 8.582-11.195 15.621-11.547 15.642-.352.02-11.199-13.886-24.103-30.903z" color="#000" fill="url(#f)" overflow="visible" transform="matrix(.904 0 0 .904 10.401 11.178)"/></svg>
