<svg xmlns="http://www.w3.org/2000/svg" width="226.777" height="226.777"><path d="M2.572 49.514a14.361 16.076 0 1 1-.014-.701" transform="matrix(7.86847 0 0 7.02917 205.761 -234.263)" style="marker:none" color="#000" fill="#8DB7C9" stroke="#8DB7C9" stroke-width="1" overflow="visible"/><path d="M3.832 143.286C1.02 132.566.637 130.01.12 118.536c-1.44-31.932 10.19-61.755 32.97-84.533C49.965 17.124 70.723 6.463 94.642 2.385 104.88.64 126.37 1.122 136.16 3.317c52.175 11.696 89.224 57.484 89.148 110.175-.016 11.281-.973 19.02-3.525 28.508l-1.787 6.645h-33.25V101.49c0-25.936-.29-47.156-.647-47.156-.356 0-17.04 16.397-37.078 36.44l-36.43 36.437-37.086-37.078L38.42 53.055v95.59H5.237l-1.405-5.359z" style="marker:none" fill="#f60" overflow="visible"/><path d="M99.84 226.077c-33.271-4.03-62.609-21.923-81.142-49.485l-2.592-3.855h47.178v-59.8l24.544 24.542 24.543 24.54 24.542-24.541 24.541-24.542v59.801H209.065l-1.56 2.465c-12.012 18.975-32.135 35.377-53.767 43.826-16.663 6.508-36.718 9.13-53.898 7.05z" style="marker:none" color="#000" fill="#333" overflow="visible"/></svg>
