<?xml version="1.0" encoding="UTF-8" standalone="no"?>
<svg
   xmlns:dc="http://purl.org/dc/elements/1.1/"
   xmlns:cc="http://creativecommons.org/ns#"
   xmlns:rdf="http://www.w3.org/1999/02/22-rdf-syntax-ns#"
   xmlns:svg="http://www.w3.org/2000/svg"
   xmlns="http://www.w3.org/2000/svg"
   xmlns:xlink="http://www.w3.org/1999/xlink"
   xmlns:sodipodi="http://sodipodi.sourceforge.net/DTD/sodipodi-0.dtd"
   xmlns:inkscape="http://www.inkscape.org/namespaces/inkscape"
   width="226.777"
   height="226.777"
   id="svg3042"
   version="1.1"
   inkscape:version="0.48.4 r9939"
   sodipodi:docname="oak.svg">
  <metadata
     id="metadata3062">
    <rdf:RDF>
      <cc:Work
         rdf:about="">
        <dc:format>image/svg+xml</dc:format>
        <dc:type
           rdf:resource="http://purl.org/dc/dcmitype/StillImage" />
      </cc:Work>
    </rdf:RDF>
  </metadata>
  <sodipodi:namedview
     pagecolor="#ffffff"
     bordercolor="#666666"
     borderopacity="1"
     objecttolerance="10"
     gridtolerance="10"
     guidetolerance="10"
     inkscape:pageopacity="0"
     inkscape:pageshadow="2"
     inkscape:window-width="1366"
     inkscape:window-height="719"
     id="namedview3060"
     showgrid="false"
     inkscape:zoom="2.3326881"
     inkscape:cx="56.158386"
     inkscape:cy="113.3885"
     inkscape:window-x="0"
     inkscape:window-y="25"
     inkscape:window-maximized="1"
     inkscape:current-layer="layer3" />
  <defs
     id="defs3044">
    <linearGradient
       id="a">
      <stop
         offset="0"
         stop-color="#2d8a0e"
         id="stop3047" />
      <stop
         offset=".321"
         stop-color="#90d71c"
         id="stop3049" />
      <stop
         offset=".833"
         stop-color="#9a3b19"
         id="stop3051" />
      <stop
         offset="1"
         stop-color="#c2121f"
         id="stop3053" />
    </linearGradient>
    <radialGradient
       cx="109.229"
       cy="80.86"
       r="82.265"
       fx="109.229"
       fy="80.86"
       id="b"
       xlink:href="#a"
       gradientUnits="userSpaceOnUse"
       gradientTransform="matrix(1.17993 1.72735 -.83772 .57223 50.532 -157.266)" />
    <radialGradient
       cx="109.229"
       cy="80.860001"
       r="82.264999"
       fx="109.229"
       fy="80.860001"
       id="b-3"
       xlink:href="#a-6"
       gradientUnits="userSpaceOnUse"
       gradientTransform="matrix(1.17993,1.72735,-0.83772,0.57223,50.532,-157.266)" />
    <linearGradient
       id="a-6">
      <stop
         offset="0"
         stop-color="#2d8a0e"
         id="stop3047-7" />
      <stop
         offset=".321"
         stop-color="#90d71c"
         id="stop3049-5" />
      <stop
         offset=".833"
         stop-color="#9a3b19"
         id="stop3051-3" />
      <stop
         offset="1"
         stop-color="#c2121f"
         id="stop3053-5" />
    </linearGradient>
    <radialGradient
       r="82.264999"
       fy="80.860001"
       fx="109.229"
       cy="80.860001"
       cx="109.229"
       gradientTransform="matrix(1.17993,1.72735,-0.83772,0.57223,50.532,-157.266)"
       gradientUnits="userSpaceOnUse"
       id="radialGradient3101"
       xlink:href="#a-6"
       inkscape:collect="always" />
  </defs>
  <g
     inkscape:groupmode="layer"
     id="layer2"
     inkscape:label="leaf"
     sodipodi:insensitive="true"
     style="display:inline">
    <path
       inkscape:connector-curvature="0"
       d="m 167.322,219.502 c -6.055,-6.974 -10.106,-11.092 -10.91,-11.092 -0.423,0 -0.966,0.887 -1.206,1.97 -0.383,1.73 -0.497,1.822 -0.925,0.758 -0.698,-1.73 -4.443,-23.468 -6.32,-36.678 -2.38,-16.75 -3.998,-22.347 -7.092,-24.514 -1.435,-1.005 -3.94,-1.236 -5.14,-0.473 -2.004,1.274 -3.719,12.18 -4.24,26.968 -0.351,9.914 -0.466,10.745 -1.449,10.433 -1.358,-0.43 -1.488,-0.196 -3.26,5.876 -0.811,2.778 -2.96,8.413 -4.774,12.523 l -3.299,7.472 -2.722,-4.441 c -1.497,-2.442 -3.51,-5.941 -4.474,-7.775 -1.471,-2.799 -2.015,-3.331 -3.385,-3.313 -1.536,0.02 -1.652,-0.174 -1.983,-3.334 -1,-9.547 -2.31,-17.45 -3.095,-18.664 -1.218,-1.888 -3.138,-1.757 -11.159,0.757 -8.589,2.693 -8.493,2.695 -7.832,-0.151 0.29,-1.25 0.535,-4.238 0.543,-6.639 0.01,-3.377 -0.205,-4.488 -0.954,-4.907 -0.86,-0.482 -0.802,-0.869 0.534,-3.516 0.826,-1.636 2.658,-5.703 4.07,-9.037 1.414,-3.334 5.123,-11.822 8.243,-18.861 3.121,-7.04 6.09,-14.395 6.598,-16.345 1.68,-6.45 0.955,-13.496 -1.526,-14.823 -1.324,-0.709 -4.01,0.16 -5.27,1.704 -1.6,1.958 -5.44,10.74 -6.42,14.678 -0.538,2.167 -1.264,5.073 -1.612,6.458 -0.501,1.995 -0.862,2.458 -1.736,2.23 -1.18,-0.31 -8.048,6.558 -11.792,11.79 -1.777,2.483 -1.958,2.591 -2.117,1.273 -0.306,-2.536 -2.594,-17.75 -2.922,-19.437 -0.317,-1.626 -0.318,-1.626 -2.779,-0.758 -3.112,1.098 -3.083,1.102 -2.31,-0.342 0.356,-0.667 1.582,-4.963 2.724,-9.549 1.141,-4.586 3.724,-13.184997 5.738,-19.109997 2.015,-5.926 3.664,-11.557 3.664,-12.515 0,-3.006 -1.494,-2.63 -5.252,1.323 -10.41,10.949 -13.495,14.03 -13.773,13.751 -0.47,-0.47 0.737,-12.424 1.782,-17.642 0.51,-2.55 2.313,-8.825 4.004,-13.944 3.903,-11.809 4.405,-17.62 2.298,-26.586 -2.146,-9.135 -2.17,-10.368 -0.248,-12.652 2.06,-2.448 5.564,-4.232 13.31,-6.776 5.734,-1.882 6.69,-2.01 17.582,-2.345 10.672,-0.33 11.686,-0.46 13.79,-1.767 l 2.27,-1.412 0.563,1.481 c 0.692,1.821 1.777,2.296 6.361,2.782 l 3.584,0.38 -10.1,12.02 c -10.905,12.977 -11.971,14.958 -8.053,14.958 1.185,0 3.805,-0.927 6.214,-2.198 13.244,-6.988 19.453,-9.972 23.68,-11.38 5.676,-1.89 5.83,-1.902 5.353,-0.4 -0.662,2.085 3.524,3.892 11.817,5.102 l 4.739,0.692 -2.962,3.932 c -3.153,4.185 -4.134,6.821 -3.032,8.148 0.531,0.641 0.02,1.288 -2.39,3.02 -1.688,1.212 -4.628,3.63 -6.535,5.375 -1.907,1.745 -4.967,4.24 -6.801,5.547 -5.622,4.004 -7.275,5.816 -7.275,7.973 0,2.145 0.742,2.996 3.134,3.597 2.39,0.6 4.966,-0.863 16.201,-9.195 5.716,-4.238 12.377,-8.596 15.502,-10.14 5.542,-2.74 17.432,-7.648 18.525,-7.648 0.327,0 0.595,0.54 0.595,1.199 0,1.609 1.913,2.742 6.809,4.034 3.995,1.055 4.062,1.105 3.203,2.417 -1.634,2.493 -5.84,15.63 -5.472,17.093 0.21,0.834 1.146,1.73 2.302,2.203 1.693,0.693 10.506,2.531 17.56,3.663 1.886,0.303 2.273,0.61 2.273,1.805 0,1.002 1.152,2.466 3.787,4.813 l 3.786,3.373 -1.513,1.059 c -2.578,1.804 -5.905,4.99 -9.802,9.384 l -3.74,4.22 1.047,1.771997 1.047,1.772 h -18.848 c -14.88,0 -19.28,0.18 -20.901,0.858 -2.812,1.175 -3.576,2.77 -2.767,5.775 0.55,2.044 1.095,2.605 3.812,3.928 2.667,1.298 4.563,1.64 11.96,2.161 4.835,0.34 10.155,0.778 11.822,0.973 7.894,0.922 24.087,6.415 22.776,7.726 -1.227,1.227 -0.664,3.116 1.327,4.452 1.082,0.726 3.82,2.387 6.086,3.692 4.403,2.536 4.404,2.55 0.417,4.561 -1.172,0.592 -3.443,2.197 -5.046,3.567 -2.28,1.948 -2.841,2.78 -2.58,3.817 0.301,1.202 0,1.388 -3.225,1.987 -6.564,1.221 -12.902,4.904 -14.333,8.328 -1.849,4.424 0.787,8.903 9.452,16.063 5.971,4.934 13.317,12.594 13.317,13.887 0,0.372 -0.802,0.676 -1.783,0.676 -0.98,0 -1.947,0.267 -2.148,0.592 -0.408,0.66 1.235,15.802 2.165,19.95 0.677,3.022 0.508,3.438 -1.061,2.624 -0.613,-0.318 -3.754,-1.208 -6.982,-1.978 -6.387,-1.523 -7.772,-1.252 -7.772,1.52 0,2.44 -0.717,2.121 -3.088,-1.37 -1.29,-1.899 -5.284,-6.523 -8.874,-10.276 -5.083,-5.31 -6.882,-6.822 -8.122,-6.82 -0.876,0 -1.928,0.406 -2.337,0.9 -0.417,0.501 -0.99,4.168 -1.302,8.335 -0.306,4.092 -1.096,10.33 -1.754,13.861 -0.66,3.532 -1.203,7.078 -1.208,7.881 -0.021,3.337 -0.928,3.121 -4.584,-1.089 z m 27.999,-35.686 c 0.215,-0.856 0.146,-2.409 -0.153,-3.45 -0.417,-1.457 -1.017,-2.018 -2.591,-2.426 -1.397,-0.362 -2.184,-0.312 -2.473,0.156 -0.683,1.105 0.063,3.668 1.29,4.435 0.624,0.39 1.134,1.188 1.134,1.775 0,1.74 2.336,1.331 2.793,-0.49 z m -27.612,-3.695 c 0.685,-1.8 -0.7,-5.654 -2.036,-5.67 -0.401,-0.005 -1.343,-0.172 -2.094,-0.373 -1.201,-0.322 -1.364,-0.14 -1.364,1.528 0,1.264 0.504,2.331 1.516,3.21 0.834,0.726 1.516,1.679 1.516,2.119 0,1.443 1.834,0.836 2.462,-0.814 z M 119.66,163.1 c 0.113,-0.764 -0.535,-1.998 -1.646,-3.135 -1.828,-1.87 -3.693,-2.478 -3.693,-1.204 0,0.369 -0.42,0.51 -0.933,0.313 -0.538,-0.206 -1.083,0.036 -1.289,0.572 -0.485,1.265 2.155,4.003 3.46,3.589 0.558,-0.177 1.368,0.102 1.798,0.62 1.003,1.208 2.065,0.86 2.303,-0.755 z m 62.49,-19.68 c 2.667,-1.62 3.082,-2.173 3.094,-4.13 0.005,-0.857 0.538,-1.852 1.222,-2.279 1.66,-1.037 1.521,-2.941 -0.303,-4.137 -0.925,-0.606 -1.516,-1.564 -1.516,-2.458 0,-1.679 -1.524,-2.511 -2.962,-1.618 -2.843,1.766 -4.745,7.106 -2.798,7.853 1.368,0.525 1.096,2.258 -0.606,3.857 -3.55,3.335 -0.548,5.594 3.87,2.912 z m 16.061,-0.627 c 0.404,-0.64 0.419,-1.766 0.044,-3.263 -0.478,-1.906 -0.917,-2.375 -2.634,-2.817 -1.406,-0.362 -2.196,-0.312 -2.486,0.156 -0.72,1.165 0.11,3.782 1.298,4.092 0.62,0.162 1.127,0.763 1.127,1.336 0,2.053 1.493,2.333 2.651,0.496 z m -75.26,-11.94 c 3.392,-2.29 3.82,-2.865 2.925,-3.941 -0.508,-0.613 -0.447,-0.9 0.251,-1.167 1.11,-0.426 1.245,-2.784 0.167,-2.9 -0.416,-0.044 -1.887,-0.022 -3.268,0.05 -1.38,0.071 -2.693,-0.165 -2.915,-0.526 -0.223,-0.36 -1.043,-0.655 -1.822,-0.655 -1.658,0 -5.18,3.698 -5.18,5.437 0,1.198 1.962,2.196 3.025,1.539 1.381,-0.854 1.798,0.445 0.623,1.94 -0.673,0.854 -1.224,1.826 -1.224,2.158 0,1.174 4.583,-0.021 7.418,-1.935 z M 86.948,101.447 c -0.39,-0.857 -1.212,-1.557997 -1.825,-1.557997 -0.613,0 -1.115,-0.273 -1.115,-0.606 0,-0.983 -2.004,-0.67 -3.608,0.562 -1.29,0.991997 -1.377,1.273997 -0.656,2.141997 1.32,1.59 3.028,2.314 3.85,1.632 0.486,-0.404 1.106,-0.317 1.904,0.267 1.026,0.75 1.248,0.749 1.672,-0.008 0.272,-0.487 0.174,-1.564 -0.222,-2.431 z m 85.198,-11.409997 c 0.476,-0.75 1.05,-2.508 1.274,-3.906 0.341,-2.12 0.203,-2.718 -0.833,-3.605 -0.86,-0.737 -1.133,-1.494 -0.889,-2.467 0.528,-2.103 -0.832,-3.373 -3.146,-2.94 -1.333,0.25 -2.16,0.078 -2.69,-0.56 -1.071,-1.29 -2.887,-1.146 -3.335,0.266 -0.413,1.3 0.148,5.192 0.981,6.808 0.29,0.563 1.414,1.108 2.497,1.213 1.697,0.163 1.993,0.441 2.136,2.008 0.327,3.574 0.745,4.547 1.953,4.547 0.653,0 1.577,-0.614 2.052,-1.364 z m 17.112,-3.83 c 0.215,-0.856 0.146,-2.409 -0.152,-3.45 -0.418,-1.457 -1.017,-2.017 -2.592,-2.425 -1.397,-0.362 -2.183,-0.313 -2.472,0.155 -0.684,1.106 0.062,3.668 1.29,4.436 0.624,0.389 1.134,1.187 1.134,1.774 0,1.741 2.335,1.331 2.792,-0.49 z m -99.848,-4.373 c 0.564,-1.362 0.511,-2.064 -0.274,-3.638 -0.535,-1.073 -1.294,-1.954 -1.687,-1.958 -0.392,-0.005 -1.327,-0.173 -2.077,-0.374 -1.235,-0.331 -1.364,-0.153 -1.364,1.883 0,1.74 0.275,2.322 1.212,2.567 0.667,0.174 1.213,0.785 1.213,1.358 0,2.393 2.007,2.502 2.977,0.162 z m 83.112,-13.773 c 0.415,-0.5 1.471,-0.913 2.347,-0.918 2.595,-0.016 3.33,-0.82 2.94,-3.218 -0.248,-1.532 -0.102,-2.228 0.518,-2.466 1.145,-0.44 1.11,-3.177 -0.047,-3.62 -1.236,-0.475 -6.136,0.487 -7.268,1.426 -0.503,0.418 -0.915,1.393 -0.915,2.166 0,1.705 -0.787,2.244 -3.892,2.668 -1.306,0.179 -2.47,0.609 -2.584,0.956 -0.845,2.548 7.064,5.22 8.9,3.006 z m -38.74,-23.19 c 0.45,-1.175 0.446,-1.977 -0.014,-2.72 -0.36,-0.578 -0.653,-1.465 -0.653,-1.97 0,-0.504 -0.239,-0.917 -0.53,-0.917 -0.292,0 -1.384,-0.17 -2.426,-0.379 -1.772,-0.354 -1.894,-0.266 -1.885,1.364 0.01,2.04 0.5,2.896 1.961,3.436 0.584,0.215 1.061,0.945 1.061,1.623 0,1.814 1.743,1.508 2.487,-0.436 z"
       style="color:#000000;fill:url(#radialGradient3101);stroke:#b85d16;stroke-width:0.60600001;marker:none;overflow:visible"
       overflow="visible"
       id="path3056" />
  </g>
  <g
     inkscape:groupmode="layer"
     id="layer1"
     inkscape:label="stem"
     sodipodi:insensitive="true"
     style="display:inline">
    <path
       style="fill:#803300;stroke:#ffff00;stroke-width:0.25"
       inkscape:connector-curvature="0"
       d="m 14.987,0.9960028 c -2.617,0.01 -4.688,0.5 -4.688,0.5 0,0 -9.866,2.154 -7.937,3.656 1.929,1.5 -0.875,2.562 -0.875,2.562 0,0 0.695,3.0050002 4.094,2.3750002 5.787,-1.0710002 13.062,-2.3750002 13.062,-2.3750002 0,0 7.551,0.956 14.156,2.157 7.074,1.2860002 24.05,6.8760002 29.157,10.2800002 4.565,3.045 9.807,10.01 15.812,17.438 l -0.187,13.438 2.125,-11.063 c 3.6,4.374 7.448,8.788 11.593,12.563 0,0 0.432,0.508 0.5,0.594 l 1,26.187 c 0,0 2.8,-10.298 1.514,-13.299 -0.804,-1.875 -0.967,-7.112 -0.326,-10.138 2.942,3.629 7.811,9.495 12.125,14.312 0.819,3.399 2.161,9.263 2.812,13.469 -0.224,-3.5 -0.468,-7.781 -0.468,-7.781 l -0.375,-3.5 c 1.82,1.958 3.456,3.615 4.656,4.593 2.703,2.203 4.044,4.455 5.442,5.576 1.198,2.654 5.87,12.06 5.495,16.924 -0.428,5.572997 -1.281,12.843997 -1.281,12.843997 0,0 2.781,-11.552 2.781,-15.624997 0,-3.19 -2.579,-10.052 -3.718,-12.937 0.704,0.376 1.47,0.729 2.437,1.125 4.716,1.929 13.719,4.093 13.719,4.093 l -18.447,-9.236 c 0,0 -11.395,-11.144 -17.365,-18.42"
       id="path3058" />
  </g>
  <g
     inkscape:groupmode="layer"
     id="layer3"
     inkscape:label="new stem">
    <path
       style="fill:none;stroke:#000000;stroke-width:1px;stroke-linecap:butt;stroke-linejoin:miter;stroke-opacity:1"
       d="m 1.7147599,13.718079 c 0,0 6.8590394,-10.2885593 21.0058081,-3.8582097 14.146769,6.4303497 40.296857,25.2927077 40.296857,25.2927077 0,0 46.727205,30.436988 51.871485,42.440307 5.14428,12.003319 5.57297,8.145109 5.57297,8.145109 0,0 19.50489,20.264227 23.57795,29.150917 4.71559,10.28856 22.29188,28.29354 22.29188,28.29354 0,0 -16.90258,-21.63843 -18.86236,-29.15092 -2.57214,-9.85987 -23.14926,-28.722226 -23.14926,-28.722226 0,0 -6.85904,-4.715589 9.85987,2.572139 9.94942,4.336926 22.72057,-0.428692 22.72057,-0.428692 0,0 -22.06895,-0.496894 -31.29437,-6.001657 -6.10864,-3.644999 -10.76761,-9.55772 -10.71725,-9.859869 L 85.309303,45.441137 c 0,0 -42.011616,-30.008298 -56.587075,-38.1534076 C 20.93517,2.936138 1.2860699,4.7155896 1.2860699,4.7155896 c 0,0 11.1459391,-4.2868996 0.42869,9.0024894 z"
       id="path3125"
       inkscape:connector-curvature="0"
       sodipodi:nodetypes="cscscscscscsccscc" />
    <path
       style="fill:none;stroke:#000000;stroke-width:1px;stroke-linecap:butt;stroke-linejoin:miter;stroke-opacity:1"
       d="m 87.881443,51.871486 c 0,0 9.00249,32.580438 5.57297,42.440307 -3.42952,9.859867 -3.42952,12.860697 -3.42952,12.860697 0,0 8.145107,-21.005807 6.001657,-30.436986 -2.143447,-9.431179 -3.000827,-22.720568 -3.000827,-22.720568 z"
       id="path3127"
       inkscape:connector-curvature="0"
       sodipodi:nodetypes="cscscc" />
    <path
       style="fill:none;stroke:#000000;stroke-width:1px;stroke-linecap:butt;stroke-linejoin:miter;stroke-opacity:1"
       d="m 118.74712,83.594544 5.57297,36.438646 -1.28607,-33.437816 z"
       id="path3129"
       inkscape:connector-curvature="0" />
    <path
       style="fill:none;stroke:#000000;stroke-width:1px;stroke-linecap:butt;stroke-linejoin:miter;stroke-opacity:1"
       d="m 60.016595,30.436988 c 0,0 16.290219,5.14428 24.006638,0.85738 7.71642,-4.2869 24.006637,-12.00332 24.006637,-12.00332 0,0 -21.005807,14.575459 -26.150086,15.861529 -5.14428,1.28607 -14.146769,0.42869 -14.146769,0.42869 z"
       id="path3131"
       inkscape:connector-curvature="0"
       sodipodi:nodetypes="cscscc" />
  </g>
</svg>
