<svg xmlns="http://www.w3.org/2000/svg" xmlns:xlink="http://www.w3.org/1999/xlink" width="226.777" height="226.777"><defs><linearGradient id="a"><stop offset="0" stop-color="#2d8a0e"/><stop offset=".321" stop-color="#90d71c"/><stop offset=".833" stop-color="#9a3b19"/><stop offset="1" stop-color="#c2121f"/></linearGradient><linearGradient id="b"><stop offset="0" stop-color="#5f8a0e"/><stop offset=".325" stop-color="#d7ca1c"/><stop offset=".812" stop-color="#9a191e"/><stop offset="1" stop-color="#f50a37"/></linearGradient><linearGradient id="c"><stop offset="0" stop-color="#40f703"/><stop offset="1" stop-color="#e4cf21" stop-opacity=".02"/></linearGradient><linearGradient id="d"><stop offset="0" stop-color="#40f703"/><stop offset="1" stop-color="#60e421" stop-opacity=".02"/></linearGradient><linearGradient id="e"><stop offset="0" stop-color="#5cc01f"/><stop stop-color="#59f70d" offset=".557" stop-opacity=".835"/><stop offset="1" stop-color="#50f110" stop-opacity="0"/></linearGradient><linearGradient id="f"><stop offset="0" stop-color="#5cc01f"/><stop stop-color="#59f70d" offset=".557" stop-opacity=".835"/><stop offset="1" stop-color="#50f110" stop-opacity="0"/></linearGradient><radialGradient xlink:href="#b" id="g" gradientUnits="userSpaceOnUse" gradientTransform="matrix(1.17993 1.72735 -.83772 .57223 50.532 -157.266)" cx="109.229" cy="80.86" fx="109.229" fy="80.86" r="82.265"/><radialGradient xlink:href="#f" id="h" gradientUnits="userSpaceOnUse" gradientTransform="matrix(.88442 1.1576 -.46836 .35783 49.624 -82.45)" cx="100.216" cy="82.639" fx="100.216" fy="82.639" r="82.265"/></defs><g color="#000"><path overflow="visible" style="marker:none" d="M167.322 219.502c-6.055-6.974-10.106-11.092-10.91-11.092-.423 0-.966.887-1.206 1.97-.383 1.73-.497 1.822-.925.758-.698-1.73-4.443-23.468-6.32-36.678-2.38-16.75-3.998-22.347-7.092-24.514-1.435-1.005-3.94-1.236-5.14-.473-2.004 1.274-3.719 12.18-4.24 26.968-.351 9.914-.466 10.745-1.449 10.433-1.358-.43-1.488-.196-3.26 5.876-.811 2.778-2.96 8.413-4.774 12.523l-3.299 7.472-2.722-4.441c-1.497-2.442-3.51-5.941-4.474-7.775-1.471-2.799-2.015-3.331-3.385-3.313-1.536.02-1.652-.174-1.983-3.334-1-9.547-2.31-17.45-3.095-18.664-1.218-1.888-3.138-1.757-11.159.757-8.589 2.693-8.493 2.695-7.832-.151.29-1.25.535-4.238.543-6.639.01-3.377-.205-4.488-.954-4.907-.86-.482-.802-.869.534-3.516.826-1.636 2.658-5.703 4.07-9.037 1.414-3.334 5.123-11.822 8.243-18.861 3.121-7.04 6.09-14.395 6.598-16.345 1.68-6.45.955-13.496-1.526-14.823-1.324-.709-4.01.16-5.27 1.704-1.6 1.958-5.44 10.74-6.42 14.678-.538 2.167-1.264 5.073-1.612 6.458-.501 1.995-.862 2.458-1.736 2.23-1.18-.31-8.048 6.558-11.792 11.79-1.777 2.483-1.958 2.591-2.117 1.273-.306-2.536-2.594-17.75-2.922-19.437-.317-1.626-.318-1.626-2.779-.758-3.112 1.098-3.083 1.102-2.31-.342.356-.667 1.582-4.963 2.724-9.549 1.141-4.586 3.724-13.185 5.738-19.11 2.015-5.926 3.664-11.557 3.664-12.515 0-3.006-1.494-2.63-5.252 1.323-10.41 10.949-13.495 14.03-13.773 13.751-.47-.47.737-12.424 1.782-17.642.51-2.55 2.313-8.825 4.004-13.944 3.903-11.809 4.405-17.62 2.298-26.586-2.146-9.135-2.17-10.368-.248-12.652 2.06-2.448 5.564-4.232 13.31-6.776 5.734-1.882 6.69-2.01 17.582-2.345 10.672-.33 11.686-.46 13.79-1.767l2.27-1.412.563 1.481c.692 1.821 1.777 2.296 6.361 2.782l3.584.38-10.1 12.02c-10.905 12.977-11.971 14.958-8.053 14.958 1.185 0 3.805-.927 6.214-2.198 13.244-6.988 19.453-9.972 23.68-11.38 5.676-1.89 5.83-1.902 5.353-.4-.662 2.085 3.524 3.892 11.817 5.102l4.739.692-2.962 3.932c-3.153 4.185-4.134 6.821-3.032 8.148.531.641.02 1.288-2.39 3.02-1.688 1.212-4.628 3.63-6.535 5.375s-4.967 4.24-6.801 5.547c-5.622 4.004-7.275 5.816-7.275 7.973 0 2.145.742 2.996 3.134 3.597 2.39.6 4.966-.863 16.201-9.195 5.716-4.238 12.377-8.596 15.502-10.14 5.542-2.74 17.432-7.648 18.525-7.648.327 0 .595.54.595 1.199 0 1.609 1.913 2.742 6.809 4.034 3.995 1.055 4.062 1.105 3.203 2.417-1.634 2.493-5.84 15.63-5.472 17.093.21.834 1.146 1.73 2.302 2.203 1.693.693 10.506 2.531 17.56 3.663 1.886.303 2.273.61 2.273 1.805 0 1.002 1.152 2.466 3.787 4.813l3.786 3.373-1.513 1.059c-2.578 1.804-5.905 4.99-9.802 9.384l-3.74 4.22 1.047 1.772 1.047 1.772h-18.848c-14.88 0-19.28.18-20.901.858-2.812 1.175-3.576 2.77-2.767 5.775.55 2.044 1.095 2.605 3.812 3.928 2.667 1.298 4.563 1.64 11.96 2.161 4.835.34 10.155.778 11.822.973 7.894.922 24.087 6.415 22.776 7.726-1.227 1.227-.664 3.116 1.327 4.452 1.082.726 3.82 2.387 6.086 3.692 4.403 2.536 4.404 2.55.417 4.561-1.172.592-3.443 2.197-5.046 3.567-2.28 1.948-2.841 2.78-2.58 3.817.301 1.202 0 1.388-3.225 1.987-6.564 1.221-12.902 4.904-14.333 8.328-1.849 4.424.787 8.903 9.452 16.063 5.971 4.934 13.317 12.594 13.317 13.887 0 .372-.802.676-1.783.676-.98 0-1.947.267-2.148.592-.408.66 1.235 15.802 2.165 19.95.677 3.022.508 3.438-1.061 2.624-.613-.318-3.754-1.208-6.982-1.978-6.387-1.523-7.772-1.252-7.772 1.52 0 2.44-.717 2.121-3.088-1.37-1.29-1.899-5.284-6.523-8.874-10.276-5.083-5.31-6.882-6.822-8.122-6.82-.876 0-1.928.406-2.337.9-.417.501-.99 4.168-1.302 8.335-.306 4.092-1.096 10.33-1.754 13.861-.66 3.532-1.203 7.078-1.208 7.881-.021 3.337-.928 3.121-4.584-1.089zm27.999-35.686c.215-.856.146-2.409-.153-3.45-.417-1.457-1.017-2.018-2.591-2.426-1.397-.362-2.184-.312-2.473.156-.683 1.105.063 3.668 1.29 4.435.624.39 1.134 1.188 1.134 1.775 0 1.74 2.336 1.331 2.793-.49zm-27.612-3.695c.685-1.8-.7-5.654-2.036-5.67-.401-.005-1.343-.172-2.094-.373-1.201-.322-1.364-.14-1.364 1.528 0 1.264.504 2.331 1.516 3.21.834.726 1.516 1.679 1.516 2.119 0 1.443 1.834.836 2.462-.814zM119.66 163.1c.113-.764-.535-1.998-1.646-3.135-1.828-1.87-3.693-2.478-3.693-1.204 0 .369-.42.51-.933.313-.538-.206-1.083.036-1.289.572-.485 1.265 2.155 4.003 3.46 3.589.558-.177 1.368.102 1.798.62 1.003 1.208 2.065.86 2.303-.755zm62.49-19.68c2.667-1.62 7.932 3.89 7.944 1.933.005-.857-4.312-7.915-3.628-8.342 1.66-1.037 1.521-2.941-.303-4.137-.925-.606-1.516-1.564-1.516-2.458 0-1.679-1.524-2.511-2.962-1.618-2.843 1.766-8.989 4.075-7.042 4.822 1.368.525 5.34 5.289 3.638 6.888-3.55 3.335-.548 5.594 3.87 2.912zm16.061-.627c.404-.64.419-1.766.044-3.263-.478-1.906-.917-2.375-2.634-2.817-1.406-.362-2.196-.312-2.486.156-.72 1.165.11 3.782 1.298 4.092.62.162 1.127.763 1.127 1.336 0 2.053 1.493 2.333 2.651.496zm-75.26-11.94c3.392-2.29 3.82-2.865 2.925-3.941-.508-.613-.447-.9.251-1.167 1.11-.426 1.245-2.784.167-2.9-.416-.044-1.887-.022-3.268.05-1.38.071-2.693-.165-2.915-.526-.223-.36-1.043-.655-1.822-.655-1.658 0-5.18 3.698-5.18 5.437 0 1.198 1.962 2.196 3.025 1.539 1.381-.854 1.798.445.623 1.94-.673.854-1.224 1.826-1.224 2.158 0 1.174 4.583-.021 7.418-1.935zm-36.003-29.406c-.39-.857-1.212-1.558-1.825-1.558s-1.115-.273-1.115-.606c0-.983-2.004-.67-3.608.562-1.29.992-1.377 1.274-.656 2.142 1.32 1.59 3.028 2.314 3.85 1.632.486-.404 1.106-.317 1.904.267 1.026.75 1.248.749 1.672-.008.272-.487.174-1.564-.222-2.431zm85.198-11.41c.476-.75 1.05-2.508 1.274-3.906.341-2.12.203-2.718-.833-3.605-.86-.737-1.133-1.494-.889-2.467.528-2.103-.832-3.373-3.146-2.94-1.333.25-2.16.078-2.69-.56-1.071-1.29-2.887-1.146-3.335.266-.413 1.3.148 5.192.981 6.808.29.563 1.414 1.108 2.497 1.213 1.697.163 1.993.441 2.136 2.008.327 3.574.745 4.547 1.953 4.547.653 0 1.577-.614 2.052-1.364zm17.112-3.83c.215-.856.146-2.409-.152-3.45-.418-1.457-1.017-2.017-2.592-2.425-1.397-.362-2.183-.313-2.472.155-.684 1.106.062 3.668 1.29 4.436.624.389 1.134 1.187 1.134 1.774 0 1.741 2.335 1.331 2.792-.49zM89.41 81.834c.564-1.362.511-2.064-.274-3.638-.535-1.073-1.294-1.954-1.687-1.958-.392-.005-1.327-.173-2.077-.374-1.235-.331-1.364-.153-1.364 1.883 0 1.74.275 2.322 1.212 2.567.667.174 1.213.785 1.213 1.358 0 2.393 2.007 2.502 2.977.162zm44.372-36.963c.45-1.175.446-1.977-.014-2.72-.36-.578-.653-1.465-.653-1.97 0-.504-.239-.917-.53-.917-.292 0-1.384-.17-2.426-.379-1.772-.354-1.894-.266-1.885 1.364.01 2.04.5 2.896 1.961 3.436.584.215 1.061.945 1.061 1.623 0 1.814 1.743 1.508 2.487-.436z" fill="url(#g)" stroke="#b85d16" stroke-width=".606" transform="matrix(1.06673 0 0 1.00867 -12.623 1.633)"/><path d="M112.5 10.063l-2.281 1.406c-2.104 1.307-3.11 1.451-13.781 1.781-10.893.335-11.86.462-17.594 2.344-7.746 2.544-11.253 4.333-13.313 6.781-1.922 2.284-1.896 3.521.25 12.656 2.107 8.966 1.622 14.754-2.281 26.563-1.691 5.119-3.49 11.419-4 13.969-1.045 5.218-2.251 17.155-1.781 17.625.278.279 3.34-2.801 13.75-13.75 3.758-3.953 5.25-4.319 5.25-1.313 0 .958-1.641 6.574-3.656 12.5-2.015 5.925-4.578 14.539-5.72 19.125-1.141 4.586-2.393 8.864-2.75 9.531-.772 1.444-.799 1.442 2.313.344 2.461-.868 2.464-.845 2.781.781.14.714.708 4.363 1.25 7.938a198.527 198.527 0 0 0 7.594 5.531c3.432-3.885 7.158-7.315 8-7.094.874.228 1.218-.255 1.719-2.25.348-1.385 1.087-4.302 1.625-6.469.98-3.937 4.806-12.698 6.406-14.656 1.26-1.544 3.957-2.428 5.281-1.719 2.482 1.328 3.212 8.394 1.532 14.844-.508 1.95-3.473 9.304-6.594 16.344-1.398 3.153-2.907 6.546-4.281 9.688 14.101 8.049 28.065 13.344 40.812 15.593.751-4.882 1.668-8.039 2.688-8.687 1.2-.763 3.721-.536 5.156.469 1.873 1.311 3.213 3.932 4.5 9.468 12.87.18 23.867-3.398 31.625-11.156a34.475 34.475 0 0 0 3.438-4.031c-3.406 1.222-5.226-.836-2.157-3.719 1.702-1.599-2.257-6.35-3.625-6.875-1.947-.747 4.188-3.046 7.031-4.813 1.438-.893 2.97-.085 2.97 1.594 0 .863.536 1.798 1.405 2.406 1.494-4.92 2.203-10.347 2.125-16.156-.069-.009-.15-.023-.218-.031-1.667-.195-6.978-.629-11.813-.969-7.397-.52-9.302-.89-11.969-2.187-2.717-1.323-3.262-1.863-3.812-3.907-.809-3.005-.03-4.606 2.781-5.78 1.621-.679 6.026-.876 20.906-.876h2.625c-3.09-16.094-10.98-34.009-23.03-51.687-.386.183-.816.363-1.157.531-3.125 1.544-9.784 5.918-15.5 10.156-11.235 8.332-13.829 9.788-16.219 9.188-2.392-.601-3.125-1.449-3.125-3.594 0-2.157 1.66-3.965 7.281-7.969 1.834-1.307 4.906-3.817 6.813-5.562s4.843-4.163 6.531-5.375c2.41-1.732 2.906-2.36 2.375-3-1.082-1.303-.142-3.885 2.875-7.938a211.542 211.542 0 0 0-4.469-5.312c-6.386-1.186-9.55-2.795-8.968-4.625.477-1.502.332-1.484-5.344.406-4.227 1.408-10.444 4.387-23.688 11.375-2.408 1.271-5.033 2.188-6.218 2.188-3.918 0-2.843-1.992 8.062-14.97l10.094-12-3.594-.374c-4.584-.486-5.652-.96-6.344-2.781l-.562-1.5zm16.281 28.656c.28-.05.71.023 1.375.156 1.042.209 2.146.375 2.438.375.29 0 .531.434.531.938 0 .505.296 1.39.656 1.968.46.743.45 1.544 0 2.719-.744 1.944-2.5 2.252-2.5.438 0-.678-.447-1.41-1.031-1.625-1.461-.54-1.959-1.398-1.969-3.438-.006-1.019.033-1.449.5-1.531zm35.188 36.969c.644-.052 1.37.23 1.906.875.53.638 1.355.812 2.688.562 2.314-.433 3.653.835 3.125 2.938-.244.973.046 1.731.906 2.468 1.036.887 1.153 1.474.812 3.594-.224 1.398-.774 3.156-1.25 3.906-.475.75-1.41 1.375-2.062 1.375-1.208 0-1.61-.988-1.938-4.562-.143-1.567-.459-1.837-2.156-2-1.083-.105-2.21-.656-2.5-1.219-.833-1.616-1.382-5.512-.969-6.812.224-.706.794-1.074 1.438-1.125zm-79.344.03c.186-.001.441.074.75.157.75.201 1.67.37 2.063.375.392.004 1.152.865 1.687 1.938.785 1.574.845 2.294.281 3.656-.97 2.34-2.969 2.237-2.969-.156 0-.573-.551-1.201-1.218-1.375C84.282 80.068 84 79.49 84 77.75c0-1.527.068-2.025.625-2.031zm-1.813 23c.702-.109 1.188.072 1.188.563 0 .333.512.594 1.125.594s1.423.706 1.813 1.563c.395.866.49 1.95.218 2.437-.424.757-.63.75-1.656 0-.798-.584-1.42-.654-1.906-.25-.822.682-2.524-.035-3.844-1.625-.721-.868-.634-1.164.656-2.156.802-.616 1.705-1.016 2.406-1.125zm35.47 23c.778 0 1.62.297 1.843.657.222.361 1.526.602 2.906.531 1.381-.072 2.834-.106 3.25-.062 1.078.116.954 2.48-.156 2.906-.698.267-.758.543-.25 1.156.895 1.076.455 1.648-2.938 3.938-2.834 1.914-7.406 3.111-7.406 1.937 0-.332.546-1.302 1.219-2.156 1.175-1.495.756-2.792-.625-1.938-1.063.657-3.031-.333-3.031-1.53 0-1.74 3.53-5.438 5.187-5.438z" style="marker:none" fill="url(#h)" overflow="visible" transform="matrix(1.06673 0 0 1.00867 -12.623 1.633)"/></g><path d="M.514 2.334C3.9 6.752 5.893 7.659 2.727 15.482c0 0 8.922-5.177 24.685-1.282 16.394 4.05 20.831 6.529 31.698 14.21 8.258 7.012 23.381 22.25 26.865 27.816 0 0 2.507 20.217-1.084 30.161-3.592 9.944-6.742 14.715-6.742 14.715s11.54-12.745 12.119-22.483c.675-11.364.392-15.295.225-17.565 7.514 7.805 14.43 15.378 19.283 18.848 7.101 5.076 4.646 9.271 5.508 10.262l4.6 32.105-1.276-31.737c5.545 5.716 18.57 19.486 21.925 26.537 4.938 10.377 23.366 28.554 23.366 28.554s-16.694-22.155-19.766-29.405c-4.49-10.592-21.107-26.802-21.107-26.802s-2.677-3.468 7.199.423c10.52 4.144 23.79-.441 23.79-.441s-23.129-.5-32.79-6.052c-6.396-3.676-11.277-9.623-11.224-9.927C97.145 61.397 88.588 48.353 77.185 38.84c1.854.101-3.706-1.698-1.742-2.17 5.387-1.298 27.391-16.011 27.391-16.011S82.71 30.074 73.661 31.897C62.27 23.81 62.715 18.437 29.655 6.396 23.395 5.086 6.926 2.666.514 2.334z" fill="#803300" stroke="#ffd42a" stroke-width="1.028"/></svg>
