<svg xmlns="http://www.w3.org/2000/svg" xmlns:xlink="http://www.w3.org/1999/xlink" width="226.777" height="226.777"><defs><linearGradient id="a"><stop offset="0" stop-color="#5f8a0e"/><stop offset=".325" stop-color="#d7ca1c"/><stop offset=".812" stop-color="#9a191e"/><stop offset="1" stop-color="#f50a37"/></linearGradient><linearGradient id="b"><stop offset="0" stop-color="#5cc01f"/><stop stop-color="#59f70d" offset=".557" stop-opacity=".835"/><stop offset="1" stop-color="#50f110" stop-opacity="0"/></linearGradient><radialGradient xlink:href="#a" id="d" cx="111.293" cy="152.521" fx="111.293" fy="152.521" r="85.402" gradientTransform="matrix(-.65971 .57219 -1.33969 -1.54461 355.63 240.685)" gradientUnits="userSpaceOnUse"/><radialGradient xlink:href="#c" id="e" cx="81.962" cy="89.234" fx="81.962" fy="89.234" r="85.402" gradientTransform="matrix(-.72535 .61858 -1.0109 -1.18538 222.312 119.07)" gradientUnits="userSpaceOnUse"/><linearGradient id="c"><stop offset="0" stop-color="green"/><stop offset="1" stop-color="green" stop-opacity="0"/></linearGradient></defs><path d="M138.824 207.89c-6.274-5.934-7.713-6.98-9.144-6.65-.746.173-.685.465-4.617-21.845-5.177-29.373-5.892-32.395-8.358-35.326-1.294-1.537-4.081-2.954-5.84-2.968-4.95-.04-6.441 5.118-7.99 27.623l-.687 10.005-1.247 1.095c-.921.809-2.118 3.308-4.589 9.582-1.838 4.668-3.97 9.733-4.738 11.255l-1.396 2.769-3.82-5.924c-3.786-5.872-5.364-7.664-6.748-7.664-.596 0-.95-1.482-2.101-8.815-.762-4.847-1.607-9.582-1.878-10.52-.727-2.521-2.564-4.17-4.644-4.17-1.351 0-11.608 2.257-15.027 3.307-.697.214-.762-.221-.762-5.097 0-2.931-.224-5.949-.497-6.705-.468-1.295-.136-2.156 5.719-14.83 15.42-33.38 16.755-37.307 15.178-44.657-.35-1.629-.924-2.73-1.97-3.777-1.353-1.353-1.646-1.458-3.474-1.252-4.579.516-7.164 4.591-11.926 18.802-1.923 5.739-2.13 6.136-3.73 7.146-.932.588-4.055 3.382-6.94 6.209l-5.247 5.14-1.42-8.584c-.78-4.721-1.655-9.075-1.944-9.674-.44-.908-.834-1.09-2.367-1.09-1.013 0-1.84-.03-1.84-.068.003-.427 5.388-18.109 7.6-24.96 4.974-15.4 5.298-17.343 3.063-18.361-1.478-.674-2.824.311-11.316 8.28-7.607 7.139-8.062 7.29-6.338 2.109.5-1.5 2.089-7.91 3.532-14.244a5610.324 5610.324 0 0 1 3.738-16.306c1.567-6.744 1.558-14.701-.026-22.518-.618-3.048-1.123-6.118-1.123-6.822 0-2.693 3.804-5.38 11.776-8.32 4.932-1.818 9.269-2.483 21.305-3.263 11.573-.751 12.05-.811 14.47-1.83 1.597-.673 1.653-.664 2.673.437.976 1.053 1.952 1.43 6.063 2.339l1.661.367-7.466 8.706C72.54 30.64 71.234 32.646 72.893 34.479c1.647 1.82 5.061.812 18.908-5.577 7.813-3.606 17.564-7.688 19.166-8.024.367-.077 1.375.568 2.24 1.433 1.674 1.674 5.578 3.007 11.657 3.98 1.566.252 2.926.522 3.023.602.097.08-.644 1.315-1.646 2.743-2.237 3.188-3.1 5.188-3.1 7.18 0 1.68-.856 2.443-13.711 12.236-7.12 5.424-9.334 7.449-10.076 9.215-.954 2.27-.735 3.546.891 5.172 1.277 1.276 1.77 1.48 3.591 1.48 2.992-.001 5.677-1.402 17.564-9.163 11.789-7.697 18.91-11.506 27.994-14.976l6.449-2.463 1.656 1.496c1.568 1.416 5.266 3.105 7.995 3.651.897.18 1.178.444 1.01.95-.13.384-1.229 3.568-2.444 7.073-1.216 3.506-2.327 7.364-2.47 8.573-.24 2.016-.156 2.303 1.009 3.468 1.378 1.378 5.47 2.52 16.02 4.473 4.396.814 5.343 1.133 6.094 2.058.49.602 2.222 2.51 3.852 4.238l2.962 3.143-1.221.94c-.672.517-3.443 3.135-6.159 5.818-5.006 4.947-7.324 8.061-6.873 9.236.206.536-.292.648-2.894.652-8.671.012-33.63.934-35.652 1.317-1.611.305-2.707.833-3.617 1.743-1.157 1.156-1.306 1.6-1.306 3.877 0 3.296.901 4.56 4.608 6.46 2.712 1.39 3.157 1.467 15.632 2.734 13.864 1.408 19.897 2.594 28.236 5.551l4.514 1.6.098 1.634c.129 2.134.787 2.8 6.167 6.229 2.482 1.582 4.512 2.943 4.512 3.025 0 .082-1.138.84-2.53 1.686-3.179 1.931-6.453 4.794-7.254 6.343-.508.982-1.596 1.545-6.295 3.257-9.096 3.313-12.478 6.053-12.981 10.513-.496 4.396 1.885 7.338 17.044 21.067l6.917 6.265-1.38.654c-.801.379-1.494 1.102-1.65 1.72-.383 1.53.169 9.417 1.095 15.63.437 2.933.727 5.333.645 5.333-.082 0-1.914-.394-4.071-.874-8.218-1.83-12.174-1.886-12.174-.172 0 .336-.128.61-.285.61-.157 0-2.948-2.776-6.203-6.17-10.371-10.815-13.764-13.202-16.354-11.505-1.495.98-2.138 3.565-3.695 14.846-1.432 10.37-2.39 16.231-2.703 16.545-.11.11-3.203-2.642-6.874-6.114zm33.536-28.897c1.512-1.512 1.699-3.75.51-6.12-.894-1.783-2.32-2.603-4.539-2.612-3.609-.015-4.053 3.213-1.011 7.345 2.25 3.055 3.13 3.298 5.04 1.387zm-29.228-3.792c1.577-2.005.859-6.19-1.325-7.719-1.375-.962-5.412-.977-5.78-.021-.467 1.22-.284 2.476.641 4.388 2.059 4.252 4.685 5.614 6.464 3.352zm-51.256-16.549c1.529-1.383.773-4.003-1.888-6.54-2.008-1.915-3.224-2.114-5.587-.915-1.466.744-1.991 1.28-2.09 2.13-.186 1.604 1.68 3.647 4.17 4.563 1.13.416 2.242.92 2.469 1.12.67.588 2.07.417 2.926-.358zm75.573-19.744c.07-.602-.469-2.41-1.197-4.016-.943-2.08-1.325-3.589-1.325-5.232 0-1.88-.278-2.751-1.498-4.689-2.625-4.172-2.79-4.338-4.321-4.338-1.832 0-9.199 3.57-9.84 4.768-.547 1.021-.519 1.084 1.892 4.302 1.66 2.216 1.715 2.387 1.17 3.7-.79 1.905-1.003 3.868-.503 4.62.315.475 1.216.608 3.604.531 1.751-.056 3.478-.184 3.837-.284.36-.1 1.926.286 3.482.859 3.501 1.289 4.528 1.24 4.699-.22zm8.328-1.575c1.074-1.366 1.184-3.866.265-6.065-1.456-3.484-7.633-3.704-7.633-.272 0 1.191 2.958 6.448 4 7.108 1.085.688 2.47.371 3.368-.771zm-81.65-11.444c3.116-1.487 5.509-3.86 5.509-5.463 0-.576.196-1.168.435-1.316.24-.148.435-.84.435-1.54 0-1.76-1.137-2.339-6.32-3.217-3.4-.576-4.645-.631-5.658-.249-2.507.948-4.997 4.041-4.997 6.208 0 1.282 1.488 2.933 2.644 2.933.724 0 .794.14.418.842-.526.982-.594 2.783-.124 3.266.647.664 4.905-.15 7.657-1.464zM57.6 97.75c2.001-2-.945-6.399-4.695-7.007-1.83-.297-4.292.802-5.076 2.267-1.116 2.085 1.012 4.446 4.527 5.022 3.082.505 4.536.427 5.244-.282zm89.693-13.319c1.492-1.173 2.814-4.002 2.814-6.02 0-.837-.387-2.376-.86-3.42-.474-1.044-.862-2.355-.862-2.914 0-1.82-1.7-3.223-4.44-3.662-1.366-.218-2.872-.605-3.346-.859-2.688-1.439-4.631.18-4.593 3.83.042 4.048.784 5.556 3.483 7.079 2 1.128 2.383 1.554 2.629 2.919.71 3.935 2.618 5.058 5.175 3.047zm18.682-3.876c1.35-1.603 1.483-3.825.365-6.054-.894-1.783-2.32-2.603-4.539-2.612-3.916-.015-3.858 3.932.126 8.47 1.656 1.886 2.588 1.93 4.048.196zM58.744 77.093c2.134-1.142 2.662-4.791 1.05-7.251-.723-1.104-3.734-2.72-5.1-2.738-1.313-.016-2.503 1.587-2.503 3.37 0 1.32.428 2.168 2.196 4.353 2.224 2.749 2.849 3.074 4.357 2.266zm48.058-37.838c1.08-1.193 1.344-4.26.533-6.2-.943-2.256-2.34-3.035-5.157-2.874l-2.324.133-.128 2.4c-.12 2.249-.03 2.493 1.415 3.894.848.822 1.542 1.71 1.542 1.975 0 1.588 2.866 2.056 4.119.672z" fill="url(#d)" transform="translate(22.199 10.011)"/><path d="M138.824 207.89c-6.274-5.933-7.714-6.98-9.144-6.649-.747.173-.685.464-4.617-21.845-5.177-29.373-5.893-32.396-8.359-35.326-1.293-1.538-4.08-2.955-5.84-2.969-4.948-.04-6.44 5.119-7.988 27.624l-.689 10.004-1.246 1.095c-.922.81-2.119 3.309-4.589 9.582-1.838 4.668-3.97 9.733-4.738 11.256l-1.396 2.768-3.82-5.924c-3.786-5.871-5.364-7.664-6.748-7.664-.596 0-.95-1.482-2.101-8.814-.762-4.848-1.607-9.583-1.878-10.521-.727-2.521-2.564-4.17-4.644-4.17-1.351 0-11.608 2.257-15.027 3.307-.697.214-.762-.22-.762-5.096 0-2.932-.224-5.95-.497-6.706-.468-1.295-.136-2.156 5.719-14.83 15.42-33.379 16.754-37.306 15.178-44.657-.35-1.629-.924-2.73-1.97-3.777-1.353-1.352-1.647-1.458-3.475-1.252-4.578.516-7.163 4.592-11.925 18.803-1.924 5.738-2.13 6.136-3.73 7.145-.932.588-4.055 3.382-6.94 6.21l-5.248 5.14-1.418-8.585c-.78-4.721-1.656-9.074-1.946-9.674-.438-.908-.833-1.09-2.367-1.09-1.012 0-1.84-.03-1.84-.068.004-.427 5.389-18.109 7.601-24.96 4.974-15.4 5.298-17.343 3.063-18.361-1.478-.673-2.824.311-11.316 8.28-7.608 7.139-8.062 7.29-6.338 2.109.5-1.5 2.089-7.91 3.532-14.244a5609.264 5609.264 0 0 1 3.738-16.305c1.567-6.744 1.558-14.702-.026-22.519-.618-3.048-1.123-6.118-1.123-6.822 0-2.692 3.804-5.38 11.776-8.32 4.932-1.818 9.269-2.482 21.304-3.263 11.574-.75 12.052-.811 14.472-1.83 1.596-.672 1.652-.663 2.672.437.976 1.053 1.952 1.43 6.063 2.34l1.661.367-7.466 8.705C72.54 30.641 71.234 32.646 72.893 34.48c1.647 1.82 5.061.812 18.908-5.577 7.813-3.605 17.564-7.687 19.166-8.023.367-.077 1.375.567 2.24 1.432 1.674 1.674 5.578 3.007 11.656 3.981 1.567.251 2.927.522 3.024.602.096.08-.644 1.314-1.647 2.742-2.236 3.189-3.1 5.189-3.1 7.18 0 1.68-.855 2.443-13.71 12.237-7.12 5.424-9.334 7.448-10.076 9.214-.954 2.27-.735 3.546.891 5.172 1.277 1.276 1.77 1.48 3.591 1.48 2.992 0 5.677-1.402 17.563-9.162 11.79-7.697 18.91-11.507 27.995-14.977l6.449-2.463 1.655 1.496c1.569 1.417 5.267 3.106 7.996 3.652.897.179 1.178.443 1.01.949-.13.385-1.229 3.568-2.444 7.074-1.216 3.506-2.327 7.363-2.47 8.572-.24 2.017-.156 2.304 1.009 3.468 1.377 1.378 5.47 2.52 16.02 4.473 4.396.814 5.343 1.134 6.094 2.058.489.602 2.222 2.51 3.852 4.238l2.962 3.143-1.221.94c-.672.518-3.443 3.136-6.159 5.819-5.006 4.946-7.324 8.06-6.873 9.236.206.536-.292.648-2.894.651-8.671.012-33.63.934-35.652 1.317-1.611.306-2.707.834-3.617 1.743-1.157 1.156-1.306 1.6-1.306 3.877 0 3.296.901 4.56 4.608 6.46 2.712 1.39 3.157 1.467 15.632 2.734 13.864 1.408 19.897 2.594 28.236 5.551l4.514 1.601.098 1.633c.129 2.134.787 2.8 6.167 6.23 2.482 1.581 4.512 2.943 4.512 3.025 0 .082-1.138.84-2.53 1.685-3.179 1.932-6.453 4.794-7.254 6.343-.508.982-1.596 1.545-6.295 3.257-9.096 3.313-12.478 6.053-12.981 10.513-.496 4.396 1.884 7.338 17.043 21.067l6.918 6.265-1.381.654c-.8.38-1.493 1.102-1.648 1.72-.384 1.53.168 9.417 1.094 15.63.437 2.933.727 5.333.645 5.333-.082 0-1.914-.393-4.071-.874-8.218-1.83-12.174-1.886-12.174-.172 0 .336-.128.61-.285.61-.157 0-2.948-2.776-6.203-6.17-10.372-10.815-13.764-13.201-16.354-11.504-1.495.979-2.138 3.564-3.695 14.845-1.432 10.37-2.39 16.231-2.704 16.545-.109.11-3.202-2.641-6.873-6.113zm33.536-28.896c1.512-1.513 1.699-3.751.51-6.122-.894-1.782-2.32-2.602-4.539-2.61-3.61-.015-4.053 3.212-1.011 7.345 2.249 3.055 3.13 3.297 5.04 1.387zm-29.229-3.792c1.578-2.006.86-6.19-1.325-7.72-1.374-.962-5.411-.977-5.778-.02-.468 1.219-.285 2.476.64 4.387 2.059 4.252 4.685 5.614 6.463 3.353zm-51.256-16.55c1.53-1.383.774-4.003-1.887-6.54-2.008-1.915-3.224-2.114-5.587-.915-1.466.744-1.992 1.28-2.09 2.13-.187 1.605 1.68 3.647 4.17 4.563 1.13.416 2.241.92 2.469 1.12.67.588 2.07.417 2.925-.357zm75.574-19.743c.07-.603-.469-2.41-1.197-4.017-.943-2.08-1.325-3.588-1.325-5.231 0-1.88-.278-2.752-1.498-4.69-2.625-4.172-2.79-4.337-4.322-4.337-1.832 0-9.198 3.569-9.84 4.767-.546 1.022-.518 1.085 1.893 4.303 1.66 2.216 1.715 2.387 1.17 3.7-.79 1.904-1.004 3.867-.504 4.62.315.474 1.217.607 3.605.53 1.751-.055 3.478-.184 3.837-.284.36-.1 1.926.286 3.482.86 3.501 1.288 4.528 1.24 4.699-.221zm8.328-1.576c1.074-1.366 1.183-3.866.265-6.065-1.456-3.484-7.634-3.704-7.633-.272 0 1.191 2.958 6.448 4 7.109 1.085.688 2.47.37 3.368-.772zm-81.65-11.443c3.116-1.488 5.509-3.86 5.509-5.463 0-.576.196-1.169.435-1.317.24-.148.435-.84.435-1.539 0-1.76-1.138-2.34-6.32-3.218-3.4-.576-4.646-.63-5.658-.248-2.507.947-4.997 4.04-4.997 6.207 0 1.283 1.488 2.933 2.644 2.933.724 0 .793.14.418.842-.526.983-.594 2.783-.124 3.266.646.664 4.904-.15 7.657-1.463zM57.6 97.75c2.001-2-.945-6.398-4.695-7.007-1.83-.297-4.292.803-5.076 2.267-1.116 2.086 1.011 4.446 4.526 5.022 3.083.505 4.537.427 5.245-.281zm89.693-13.318c1.492-1.174 2.814-4.002 2.814-6.02 0-.838-.387-2.377-.86-3.42-.474-1.044-.862-2.355-.862-2.914 0-1.821-1.7-3.223-4.441-3.662-1.366-.22-2.87-.606-3.345-.86-2.689-1.438-4.631.181-4.593 3.83.042 4.048.784 5.556 3.483 7.08 2 1.128 2.383 1.553 2.629 2.918.71 3.935 2.618 5.059 5.175 3.048zm18.682-3.877c1.35-1.603 1.483-3.825.365-6.054-.894-1.782-2.32-2.602-4.539-2.611-3.917-.016-3.858 3.932.126 8.469 1.656 1.886 2.588 1.931 4.048.196zM58.744 77.094c2.134-1.142 2.662-4.792 1.05-7.252-.723-1.104-3.734-2.72-5.1-2.737-1.313-.017-2.503 1.586-2.503 3.37 0 1.32.428 2.167 2.196 4.353 2.224 2.748 2.849 3.073 4.357 2.266zm48.058-37.839c1.08-1.193 1.344-4.26.533-6.2-.943-2.256-2.34-3.034-5.157-2.873l-2.325.133-.127 2.4c-.12 2.248-.03 2.492 1.415 3.893.848.822 1.542 1.71 1.542 1.975 0 1.589 2.866 2.057 4.119.672z" fill="url(#e)" stroke="#ff0" transform="translate(22.199 10.011)"/><g><path d="M.514 2.334C3.9 6.752 5.893 7.659 2.727 15.482c0 0 8.922-5.177 24.685-1.282 16.394 4.05 20.831 6.529 31.698 14.21 8.258 7.012 23.381 22.25 26.865 27.816 0 0 2.507 20.217-1.084 30.161-3.592 9.944-6.742 14.715-6.742 14.715s11.54-12.745 12.119-22.483c.675-11.364.392-15.295.225-17.565 7.514 7.805 14.43 15.378 19.283 18.848 7.101 5.076 4.646 9.271 5.508 10.262l4.6 32.105-1.276-31.737c5.545 5.716 18.57 19.486 21.925 26.537 4.938 10.377 23.366 28.554 23.366 28.554s-16.694-22.155-19.766-29.405c-4.49-10.592-21.107-26.802-21.107-26.802s-2.677-3.468 7.199.423c10.52 4.144 23.79-.441 23.79-.441s-23.129-.5-32.79-6.052c-6.396-3.676-11.277-9.623-11.224-9.927C97.145 61.397 88.588 48.353 77.185 38.84c1.854.101-3.706-1.698-1.742-2.17 5.387-1.298 27.391-16.011 27.391-16.011S82.71 30.074 73.661 31.897C62.27 23.81 62.715 18.437 29.655 6.396 23.395 5.086 6.926 2.666.514 2.334z" fill="#803300" stroke="#ffd42a" stroke-width="1.028"/></g></svg>